<mxfile host="65bd71144e">
    <diagram id="HIP3nbAZw_EuaXWnEj3U" name="Page-1">
        <mxGraphModel dx="532" dy="346" grid="1" gridSize="10" guides="1" tooltips="1" connect="1" arrows="1" fold="1" page="1" pageScale="1" pageWidth="850" pageHeight="1100" math="0" shadow="0">
            <root>
                <mxCell id="0"/>
                <mxCell id="1" parent="0"/>
                <mxCell id="7" value="http://ics2o.mths.ca" style="swimlane;whiteSpace=wrap;html=1;" parent="1" vertex="1">
                    <mxGeometry x="45" y="30" width="760" height="480" as="geometry"/>
                </mxCell>
                <mxCell id="8" value="&lt;font style=&quot;font-size: 24px;&quot;&gt;Dividing with while loops, in JS&lt;/font&gt;" style="whiteSpace=wrap;html=1;" vertex="1" parent="7">
                    <mxGeometry y="20" width="760" height="60" as="geometry"/>
                </mxCell>
                <mxCell id="9" value="&lt;font style=&quot;font-size: 18px;&quot;&gt;Enter dividend:&lt;/font&gt;" style="text;html=1;align=center;verticalAlign=middle;resizable=0;points=[];autosize=1;strokeColor=none;fillColor=none;" vertex="1" parent="7">
                    <mxGeometry y="93" width="140" height="40" as="geometry"/>
                </mxCell>
                <mxCell id="10" value="&lt;font style=&quot;font-size: 18px;&quot;&gt;Enter divisor:&lt;/font&gt;" style="text;html=1;align=center;verticalAlign=middle;resizable=0;points=[];autosize=1;strokeColor=none;fillColor=none;" vertex="1" parent="7">
                    <mxGeometry x="5" y="170" width="130" height="40" as="geometry"/>
                </mxCell>
                <mxCell id="12" value="" style="endArrow=none;html=1;" edge="1" parent="7">
                    <mxGeometry width="50" height="50" relative="1" as="geometry">
                        <mxPoint x="20" y="240" as="sourcePoint"/>
                        <mxPoint x="230" y="240" as="targetPoint"/>
                    </mxGeometry>
                </mxCell>
                <mxCell id="11" value="" style="endArrow=none;html=1;" edge="1" parent="7">
                    <mxGeometry width="50" height="50" relative="1" as="geometry">
                        <mxPoint x="20" y="162" as="sourcePoint"/>
                        <mxPoint x="230" y="162" as="targetPoint"/>
                    </mxGeometry>
                </mxCell>
                <mxCell id="15" value="number..." style="text;html=1;align=center;verticalAlign=middle;whiteSpace=wrap;rounded=0;" vertex="1" parent="7">
                    <mxGeometry x="20" y="130" width="60" height="30" as="geometry"/>
                </mxCell>
                <mxCell id="16" value="number..." style="text;html=1;align=center;verticalAlign=middle;whiteSpace=wrap;rounded=0;" vertex="1" parent="7">
                    <mxGeometry x="20" y="210" width="60" height="30" as="geometry"/>
                </mxCell>
                <mxCell id="17" value="CALCULATE" style="whiteSpace=wrap;html=1;" vertex="1" parent="7">
                    <mxGeometry x="20" y="270" width="120" height="40" as="geometry"/>
                </mxCell>
                <mxCell id="18" value="" style="shape=image;verticalLabelPosition=bottom;labelBackgroundColor=default;verticalAlign=top;aspect=fixed;imageAspect=0;image=data:image/png,iVBORw0KGgoAAAANSUhEUgAAAzEAAAHdCAYAAAAtj/dQAACioUlEQVR42uzdd5Tc5KE28EfS9Lq9ua3buhdcMC5gY8CAaaGHhBBI+0J6ctNubm56JwnJJe0mJHAhCaHXGGyaDbYB99693vX2vju9aKTvj8VbPCNpZou95fmdw8E70kiaV5oZPfM2QQ1UqSAiIiIiIhomRBYBERERERExxBARERERETHEEBERERERMcQQERERERFDDBEREREREUMMERERERERQwwRERERETHEEBERERERMcQQERERERExxBAREREREUMMERERERERQwwRERERERFDDBERERERMcQQERERERExxBARERERETHEEBERERERQwwRERERERFDDBEREREREUMMERERERExxBARERERETHEEBERERERMcQQERERERFDDBEREREREUMMERERERERQwwRERERETHEEBERERERMcQQERERERExxBAREREREUMMERERERERQwwRERERERFDDBERERERMcQQERERERExxBARERERETHEEBERERERQwwRERERERFDDBEREREREUMMERERERExxBARERERETHEEBERERERMcQQERERERFDDBEREREREUMMERERERERQwwRERERETHEEBERERERMcQQERERERExxBAREREREUMMERERERERQwwRERERERFDDBERERERMcQQERERERExxBAREREREWXOxCIgIqLzJRGrhxxpRCLeDEfOSkCQDJ8TaHge8XAFJHM2BMkF0eSCKLkgiOb3/2+HaLJBEB0QJWda2yQiIoYYIiKibmoC8XAV4pHTSETqEAtXIhFrQCLW1ms1m3cRRJMnrU1GOvamtZ5nzAfhzFvDc0BExBBDRESUnlDrWwg0PJ8UWFJmHSUEwDOg+zeZ89MMRdsRCxyG1T0fJvtYSOYcnjwiIoYYIiIajSyOiWkFGABQ5AgkS3rbNTsmQE2EocR9UJSI5nqSNS+t7SViLQg2b0SweWPXYzbvPFic02CyFMJkL4ZkKeIJJSJiiCEiopFOshRAEM1QlXj3F4+1AGb7eEjWIpisRZDM2ZAs2ZDSrDVxFd4AV+ENXX+rShRKIgg1EYQiB6AkAlASYSiyH5IlN61txkPlSY9FOvb2arZmdkyAyZIPk21Mr/0TERFDDBERnQdypAqC5BzwZlSCaIXZMRk273xYHJNgso2DIFoHfB+SaAX6cexyrAmCIEJVFZ2gU4l4qBI5E1fwgiEiOs8ENVClshiIiEa3cNtWxAKH4R33ccN1VSWKqH8fbN7FIy7IxcNVkMNViEeqEQ+fhiL7k9YrnPWbtAYgUGRf2gMVEBFRZlgTQ0RESMSaEGrdAlfRjbq1MdGO3Wivfhgma+GICzEm2ziYbOOA7B7lEm9FPHQSscBhxALHANGcdjBpPXU/zLaxMDsmwmyfBLOjlBcaERFDDBERDZRo4CgAIFD/rGZtjL/2cQSa1gMAYrIfweYNI374YsmcA8mbk3FgU5VoV/MztG6BIJphtk+A2T4WVvd8WD1zedERETHEEBFRf8ihCgBIWRuTiNWjo/ofiPoP9g4+vv2wZ13EJlMpxPyHzgo1ccSCJxALnkCweSNE0QaLexps3sWweRcOeD8hIqKRTmQREBGNbqoS6jVMcaD+2V4Bpu3U75ICjCv/SmSN/yQDjAbJmgdX/pUQTe6UyxUlgkjHXrSffhCB+udYYEREGWJNDBHRKBcPVfb6+0xtDNQY2k79DvFIbdcyUbTBM/ZO2LOXseD0vlxt4+AuuR3uktuhKlGE299DuO1dxAJHktZl0zIiIoYYIiLKUCx4LOkxX82jSESbegUYs60E3nF3w+yYwkLLgCBa4ci5BI6cSzrLO3AYkY7tCLe+C0WJwOKakdZ2ONoZEVGPz1YOsUxENLp1VP0VodYtuuuYbSXInvg5zlo/wBLx1rTn5gm1voWobzfMjimwuqYxTBLRqMaaGCKiUS4eqdZdLlmy4SxYywAzCDKZXDTq241Ix15EOvYiIIgwOybB4pgMW9YSDt9MRKMOa2KIiEa5ur0fS3tds2MCJHMWzPZSWJxlkKyFGd2I0+CcJ7OtBFbvAtizFnfOdUNExBBDREQjlRypQtPR7/b5+Y6c5YYTZFL/KbIPoZY3EWp9C4lYm+E50Zrrh4hopGBzMiKiUSwermJ4GQZEkweuwhvgKrwBcqQKkY5dmoHG5lnAAiMihhgiIhq5ErEmhpfh9sVtGweXbRxchTcg6tuHqH8PIr69SMTaIFmyOWQzETHEEBHRyBYNHGV4GcasnrmweubCWdCKqP8A5HAFIEgsGCJiiCEiopFLDlUwvIwAkjnn/XloLkn7OfHQCfjrn4fVMwc27yKeYyJiiCEioqFPVUJQlAjDyygVbtuKqP8gov6DCDT8GzbPXNi8i9kcjYgYYoiIaOiKhyoZXkZvhEUscKzrL0X2I9S6BaHWLTA7JsDmXQR79lJeB0TEEENERENLLHiM4WWUinbsgSA5NMNtPFSJQP2zsGcvhT17GSyuGSw0IhpSOE8MEVGazgxtGwuegBythSqHoaoxCIIFEM2QLDkwWfJhso2B2TYeZudkiCZPxvtJxDs7aceDxxEPnYKihKHIAUBNQJCckCw5sDgmwuqa09n0p48duTuq/goADC+jWCJWj3D7TkTa3kE8UptyndzJX2OIISKGGCKi4SYeOgFf7ROIBU9k/Fxn3ip4xtyVdkgKNLyISMcuqKqS1nNEkxvu4pvhyLkYgJDRsalKCILo4AkmAEAscBhR3z5EfLshRxsBABbXdORO/joLh4gYYoiIhg01gY7qhxFq3dLnTVjds5Az6T8M1ws2b4C/9gnd8CIIouZym3cessZ/GoJo5XmjflFkH6L+A4j69sDimg5H7moWChExxBARDYv8ooTQWv4bzdoXe9YiuAqvg8laAlWVIUeqEG7bilDrFqhKPKMQ46t5BMHmjSmXiaINnrF3wp61pDPstLyuGXYszinImfQfDDI0oIEm3SaR8dAJmB1TWGhEdE6ILAIiorMTTEI3wLiLbkDWhM/AZBsHCBIE0QqzYwo8Y+5C/rTvQxDNae8q1PKGZoABgKwJn4Y9e1lnvxdBgjNvDZwFa1OuGwuegL/ucZ4/GribhDQDTCLeiubjP0FbxW8RankDiuxj4RERQwwR0bnkq/2HZoCxeefBVXiD5nMlSxHM9glp7UeRffDVaocOi2t6yjk7XAXXaAalYPNGxA0msCQaaOG2dwAAkY696Kj+O5qPfx++mkcQCxxm4RDRoOAQy0REPcQChzVrRgRBhKfkdsNtWByT0xoEINj4cq+mZ2ezZ1+U+jhEK2yeeQi370i53F//dFr9cIgGStR/sNffiVgbgs0bEWzeCLNjAuxZS2DPXtan0fpGDDWBQNMrCLe+jUSsGaLZC3v28vd/lGATUKJMsSaGiKj7LgO+mn9oLrV5F0CyFBmHGGdZGrtSEGrZpLuK1aW9HYtruu4NZSJWz9NJ54yn+CY481ZBFG1Jy+KhSvhqn0Djoa+go+qvo7N2RlXQVvk7+OuehhxthKoqSMTaEGh4Ca3lv4KqRHkREWWINTFERGdu/jv2aM6VAQD27BVpbcfsnGy4Tjx8GooS0VwuCCIkS6H2Puzjdbcfbt8JV8E1PKnD9p43iljgKOKRKsjhSiTi7UjEW7rmJlJVBYJohiDaIJncEM3ZMNvGQrIVw+oqSytsDySzYwrMjilwF9+CSMcehNveSaqdUVUFodYtcOSuHHXnM9S2GZGOvSmXxYInEGx+je9XIoYYIqK+CTS/qh0qRDMsrmlpbUc0eWB2TEAi1gpRsqe+cQkd092GZMmD3rwvJluJfiDz7eVN0TAMLpGOnQi3vYNY4LDhXEGqEoeqxKHIfiBS2ys0mKwFsGVdCEfuqnM6kakgOmDPXgZ79jLEQycQad+JcMc2JGJtAABHzvJROYJZpH27/vKOHXy/EjHEEBFlTpF9iAWOaC43OyZn1G49b+p3DfYX0L8Z1Ag/PW8WRdGmWZsTD5VDVaJsaz880gtCrRvhr3++M5CkFRbMuv2p5GgjAg0vIdi4DvbspXAV3XhOw0zne6azdsZZcDUiHTsQ6djdOdLeaPx8ibcZfv4QEUMMEVHGIh07dJdb0hxxLO371oRBiBGMh2mWLDlQNJq/qaoCOVLFeTuGuESsHm2V/4t4qFJzHdHkhj1rIWzexZCshZBMXkCQoCpRKHIbov5DCLfvSBnCzzThirTv7Jxv6DyECNHkgSN39aieNFOy5us2VZXMuXwzEDHEEBFlTq8WBgAkW/HAhhidX9HTJZg8ALRvjOKRWoaYIX3NHUbbqQd0+0Y581bBXXx7yho1QbRCshTBkVsER+5qxAKH0V71YFfTrZ4UJYL20w9CDlfBXXIb9Joq0sCzZy/T7BPTufwiFhIRQwwRUR9uKEMndZebDfqgZEqUXPohR42nsQ39pmKJWDNP7BAVD51A66nf6IZZ79g7M6q9sLhmIH/aD9F87AeQo40p1wk0rQcAuNMYKpx6vSMRaFwHqHLXI1b3rLR/JLB5F8ORsw+h1i0pls2DI2cVi1hDuG0rErGmrr8lS/6obZZIDDFERL0osi/lr9e9AsMA9ycQJJv+LVMi3O8gZNQOn87f9dZ66gHdAOPKv7JPza8E0YGcSV9C8/GfavavCTSth2TNH9XNuzIV6dgBf93TZ5W1NaOaTu+4j8HsnIpw62Yk4i0QTR7Ys5fCmXsZIHDGi1QS8VZ0VP2t1yAXNu88hhhiiCEiAoBErDWNwOB8f916xILlkKP1Xf1aBMkF0eSCxVEGs2MC0mmqY7aNN/jybgOg6m5LEM0G22jnyR2COqof0u3Ab7IWwF18S5+3L1mK4C66AR3Vf9dcx1f7OKzumed8KOZhSVWSAkwff7qAI+cSOHIuYZmmKVD/rOEofcQQQ0Q0ekNMvEn/1kMQEWx+DZG2d3Q75wKdnbCdeavhzL8CgujQDjEGc8moShxypBom2zid47IabIMT6A01Ud8+3b4RAODIWw0IUr/2Y89erjvamarE4at9HNmlX+RJMRBq26zZPI8G8XM5Vo9w2zssCNL+vmURENFoZzSsrfr+L7FGAebMtvz1z6Px8H8iHjqhE3Y8sDj1m6JEfPv69brURIgnd4gJNL5kHECy+t/JWxCtsGct1L++OvYiHqrgSdF/EyHYuI7lcB74655hLQwxxBAR6d6nKLFBCUYtJ36GqE4QceVfrbuNUMsb+rUpBs3J1B6dkOn8kyNViAVP6K5jcU6BaPIMyP6s7vmG64RaXueJ0Suf1k2shTlP75Vw+w4WBOliczIiYohRE7rLBdEMZ/6VsDimwGQf29U/Jh4qh6/mH5o1NKqqoL3qr8gr+27KiQat3vmwumf1mmm9p0SsDR1Vf4V33Mc5aeUIEDaYtR0ALI7JA7Y/i8u403mkfSe8Y+/ud/O18yURb4UcroaSCECRfVDVBESTG6Jkh8laBJNtLPo6nLSqROGvf36If3gpiIdPIxFvgiL7oSTCEEQzRMkFk7UAZvvEc3Nu1QTi4SrEI6ehJkJd58FsG592P8Ge/PXP8AODGGKIiIy/gPVrLESTC+6im1LcJM5A7tRvoenof2uObqbIfvhr/4WsCZ9JFY+QNf6TaD7+fc3nh9t3IBo4CnvWQgiCFaoahSIHEA+fNvyFWBD4ET+URP37jb+U7eMGbH+C6IBkydYdeU9RIogFj8HimtErGDQe+mpa+zDbSpA37UfJ123bVrSffjCtbWSX3gubd3Har0uRfQg2voyIb7fhe0A0uWF1TYMzfy3MjtK0QlHUfwAx/wFEfQd05/Dx1T4BX+0TSY8XzPwlJHMOor59aD31m7Rek807L6P+SfHQCQSbNhgeoyjaYPXMhrv4Jt1BHBoOftGwWS3QOW+RZ8xdXcEl4tuFSPt2RHx7NUfbM1kL4Cq8XndEMVWJIuY/hGhgPyK+vbrXbKRjL+r2fizp8azxn+CoZQwxRESjjMHNvqrIujeK7qKbdW/YIh27kIi3pqyNEU0e5E75L7SV/1qzRkeR/Qg2b8z8dRk0N6NzmJOVKOKhSuMvZevAzkdkspYYDh8eDRzuFWIEwQRBEPvVH0EYlGtPRaDhBQQa16U9Wawi+xFu34Fw+w7YsxbBO+5uzQE3Mgkd56sMFNmHjuqHDAeH6BlSw+07EOnYBXfxLXDmX9Wv/ccj9VCVKILNryHYtCGt4CNHG3tMtHp7yvdGw4HPsv8LZf4VxyIgolH/QSjZDe4E9G+YbN6FEEXteV9UVUGkQ7t9t2TOQe7U/4Yr/8oBvfERBIaYoUKOVKW1nmQZ2PmITNb8jI9NNHlQOPv3yJn4JVjds/q0X5t3MQpm/hLesXcOyDWtKlG0V/4R/vrnUwYYs60ErsJr4Sq89v3mS8nC7TvQcvwnSMQ1hlQ3aFaaKYtrBgpn/QbZpfcaDuKRjkS8FS0nfpIywAiiGc68VXAX3ZDy9auqAl/tEwg0/jvltnMnfxWekts0y67rWglVoPHw1+GvezqtANNToGk9oh27U70yBhjq2+cbi4CIRjtBNJh4EkZ9ZqwwOydr9m0BgHjwBJC3Rncb7pLb4Sy4GhHfHsT8BxAPn4aSCENNBCEIFohmD0y2YpgdU2B1zUKwaZ1u51fJnMWTO0SkM7KdIIgQTe6BDegmbxohpi7l9Wj1zIUcq9e9rnUDmTkHjtzVmsEjE/66xzWvdZt3HrInfL5rwkh30Y3w1TyasvYyHqlFW8UDyJvy7aS+IlbvfBTP/UvX380nfqRbe+YpuQ3OvCtSnEipVyC0eRcjHiw3HNRB/0MogbbyX2s2n8uZ+KWu2jRXwbVoPvbdlNdcoP5Z2Dxzk4ZuN9nGdf5nLdGtjVKUCKBEIIo2mJ2TYbLmQxCsndeJb79hGPE3vgCr94KzrjVHr3L31z2FQNN6nYA8D9kTPpfqQ5QfNAwxRESji2TO1r9/UOKAquh+SZptY/VDTPh0mjednrQnxFMSYYPXlcuTO0Sk86u1IFjQ107omts0qmXEmYlVh66ob59mc0pBEOEZ85Gz3psC3MW3I9y+M2W5x0OVCDS9AlfBNWdvLfNO8OdoQAR/w/OaQdietahXc0AIEhz5a9BR9XDyZ5mqwF//TJ/nBxIEEdkTPgurZ27Sa4+HTqD15K91++jEQ5Wpm9YO0XKnoY2xlYgYYizZhuuoakT/w9RgG0rcN/A3xomA/utKoykRnRuqHDC+LzPZB3y/RrWMZ0K6qgzdOYX8Dc9qLrO4ZqTsa2Y0T06g4YUh/Zp7n58Qgjo1E1bP/OTHXGU6oXA/FLlvn0eCYOmsSUkRIsyOKXAVf8BwG3IafcOIGGKIiNIJMeZ8w3b7Rl/6RjeLnb9OqgN63IlYq+5ys308T+5QuRFVo2ncIA58H6Z0R6jTG7zifIqHKnSbdJkdE3UDjl5wC7e9OyyunVDrZt3meOYUI9pJ5nyda1FB1H9gUI7VkbPC+HMr4ecHAjHEEBENzJ2eBJOtxCAwtPXrZlEY4PbaqhLSbaIkCGLnHBE0NEJMP/uE9PnSTrNT/VCdGDXS/p7ucpO1SPfHCT3DJcREDCZ9lCwFKT/T9AYbkcNVg3S9OQxrtlUlwg8EYoghIhooVud0/RBj0G/A6CZQkJwYyP4OskFHcbOzjO3GKe3wNFTnFIqF9Zse6fVnM9kKdJ8bD1cO+IhkA38CE53HqRNSNSfC1QmwRuXarxtLk8foouQbkxhiiIgGil7TEwCQo/UGX8wGE2am6GCtyD4EGv+NQOO/0x6Ct+smJFSuu9yetYgndQhJp0ZEVePn8fisQ/EOHnKowuC47X1adibgydHaIX3dyNFa3SCq14xVEE06H1c+vilp2OPoZEREACyuaRBFm+bIOkYhw2iksFT9UxS5A/66p9+/oYrCXZT+bO2xwGHdG2ablyFmSIUYyWV8yz4I/VLSbbojiJYhV2aK7Ncd6QoARJNeXzQBosmt2+xSjtYnDTc8tEJMfRrnOJr5dTFEmw8SMcQQEWV6kylaYc+5SHMo11iwHJ0d81M3CVPiLfohxmCyu3joVAY3plHE/Ec1lztylhs36aBzKp05ewajr4BRuO4MAm4M9NDOAxPA0hg9TLAMevmc1yBncHyK7Ef9/ntH3OsmSgebkxERvc+Zv0b3ZkFvlCQ52qS7bZtnrn6ICZ5EuqOXhdvf0/yFWhDNcBZcy5M5xJisxWnctMf79Ku67jbTGNp5qI5ip8jGoc5wQA1Rf7maGNrDLA/a8SlxvimJIYaIaKSQLEVw5q3SXK45UpKqvB9CNAKMdx4kS5H+PYUSgRypTueuBsHGdZqL3UU3ppw3g85ziLGNSfPGfWAnnkwY1BB2BqyhOZ+QqvS/tsBo2OqBDo0DXgZDfeABovP5ucoiICLqEQKKb0HEtzflkMqhlk1wFlyd1FQr6j+gXTMiiClmBk8tFjpl2D7f3/A85GhjymUW13Q489bwJA5BoskDyZJtOFS3HK4zDLyZkGNNhuuYHVOGZJkZdcxPLwTEDfZhHdLXjdGAECZrAfKn/4xvMBqdn6ssAiKinjcNDmRPuDflzYOiRNB++i+9hmVVlajujOKuohvTvkn01z2NcNvW1MO+qgkEGp5HoOEljRvRCciZ+EVA4Mf6UGXzzDNcJz6Qo2WpCcOhuAVBhNU9e4gGP1saIUW/g7rRYAmC5Bjin0e2foU0opGMNTFEREmBYApyJn4JbaceSKphifoPovnYd2HLXgqoMsJt72jWjDjzVsFVsDbt/SqyH+2nH4Sv+u+wembDZBsDQbJDibUh4tutuR+bdx6yxn9yyP+qPOpDjHex5sARXSEmdGLA9hcPVxnOE2N2TBqyg0AIYhoBQ40ZvKn0X3+qoc+HEkly9yukETHEEBGNMhbXdORN+w7aKv83qUN/PFKL+PtDI6e8MRJtcJfcAkfu6j7tW1EiCLfvAKA/U7docsNddAMcuZdiKI4uRcnXlMlaoBlGAXSOOqcmBmSi0mjgoOE6jtxVQ7a8RJNHd9jzzuAfgaQ5QJlqOESzyVo0pK8Zk11/QAg1EYTeqIlEDDFERKOOAMlShLyp30GkYweCTa8iHiqHqjPbtMlaAHv2Ujjzr0jrV2TJUgDPmA8iFjiMWLBcdz6LnsyOCbBnL4UjZ0V6v1bTkLmmnPlr0FH9d90AGwseM5x8NR2Rjh0GN/AFsGddNKRLzOycjKhfO4zpdf43ej8Johkm65gh/folS6FukFNVBYl4GwfzIIYYIiJKvvG0eRfD5l0MVQkhHqqEHK3rmmdBNLkhSW6YHBMyvpEQRCuceWu6OuMrsg+JWCMS8TYosh+qEoOqRCGIVgiSAyZLPsyOCQwuw5gjZyWCTRt0a2OCzRv6HWLioQrdIcEBwFV4fb/7UCnK4M43YnZM1A0xcqwJFqQuq0SsVX/b9gnDoA+ZAJOjFLHAEe0yCFVC8jLEEEMMERFphg4HLK4ZA/IreSqiyQPR5IGZRT2CLyIJWeM/gZYTP9Os1Yt07EU8dKIfo4ap8NU9obuGPWsR7NnL0rjm9TuWJ2JtUGTfoPWrsWct1hzMonP/zdo39waDJNiz+1cLda6GZ7ZnX6QbYsLt78DqvWDUvIWURJSfI9T5nckiICIiOnfMjilwl9ymu05b5R+hyL4+bd9f/6zuTa/JWgDvuLvT2pZkyjJcJ9z+7qCVlck2DmbHBM3l8dApzWWxwGHtmx/RBnv2cv0bJMmlfzMtd5ybEJO1BKJOmAy37xjQASHOe843GZR7vJUfIsQQQ0REdD4489bAVXit5vJErA2tp+5HIqMbNhXB5g26NRcmawFyJn897SaJZkep4TqBuudS30SrCcQCh6EadK434im+TTeopCojVYki4tunXf4FVxqO5mc0CWi4fec5qY0RRCtcRdfrrtN68te6oW04MVkLdJfL0cYRFdqoH9cKi4CIiOjccxfdBNHkgr/2iZRNy+KhSjQf+TbcJbfAnn2RbvCIhyrgr39at/+IxTkFWRM+nVHfLdHkgdkxQbd/jaJE0HLiZ7B65sBkGwc1EUAi3pbRYBV6LK4ZcOatSjk8taoq8NU8iuzSL6DnCF2+mr9r7tvinAJXwXWG+7W65+sOia3IfrSe+i08xbfBZCuAkoggEW2AHK3r88iEmqEr/0pEfPs0a9gUJYLW8l/B5l0Aq2c+zPZxECTn+4UUQyLWBjnWhESkDrFwJVz5V8HqmTsk3xdW9ywIoll3ePC2yj/CO+ajMDtKoaoylLgPcrQWFtd0DnIwighqoEplMRAREZ0f8VAFOqoeRFxnYkpBNMPqngmTpQiiJRuCYIIi+6HIHYj6D+kOFCCIZriLboQz/0r0ZSjeaMdutFY80KfXJprcgBLXHerY7JgAe9YSWN2zYLKNS7mOqkTRUfXX94ceT70Nm3cRgM5R2bRCV+eksF9Osw+PipYTP0UsmNmv/oJoRtGc/wUAJOKtiAWOINSyUXc7JmsBnAVrYXWVQbIUaYQmH9oqfpfx8aSSXXovbN7FPV5qAvHwKYRaNiHUukX7tQkiPGM+BKtnflJYUGQfov4D8NU+rhtere5ZcOZdAYtrmmZtmL/+Gd0aRS15U7/Vj75kxBBDREREGVIRbnsHwcZ1umEmowAh2uDIvxzOvMv73fHeX/s4Ak3rMwovzvw1cOZdjraK3+nWEPU83sI5f9AtI3/9swg2rTecxDMVR85yeMbcmdGksIrsQ+vJX2R0Ts6EmGDzBvhq/tWn4/SO+7hGESTgr3sKweZXdYd712PzzoNnzEd6hZDGw/+BRKwto+1kjf9E1+AQcqQKTUe/m9kNqCAif8YvUtecqAm0n/5fzdCqHWK+k1YTSBoZ2JyMiIjovBNgz14Ge/YyxEMViPh2IerfDzlc1eebVclWCFfBNRndtGtxl9wOk30c/PVPa97snqktsmcvg82zoGvCTrNtbFohJp0ychfdBEfuKoSaXkXEt1u3BgoAJEs2bJ55cOav0azh0A9jHuRO/W8EGv+NUMsm3RqGM/vqnHwWfQpaxkUgwV1yOxz5V6RdBoIgwmQfB5tnPmzeBSlru1RFzjx297Ovk6oqgBrTfJ1ZEz4Dq2erYbAXRRusntmwZy1lgBltn5qsiSEiIhqi1ATkaC0S0WYk5LauuYOCjesNZ6MHOodSzppwLwZuRncV8VAl4pHTXTf0oskNs60EJtu4AQlMmUjE6iGH65BI+KHIfgiCBEFydM7dZC/uU3DROxfxcBXikdNQEyGoagKiZIdkzoPJPva89cVQZB/ioQooiQCURACqEocgmiFKLpisBeflvAzGeY6Hq5CIt3W9PsmcDbN9HCRzwTCY74cYYoiIiAhR3z60nvpNWuu6Cq+Fu+gmFhoRjSiMrkRERMOM1TMX7qIb0lo30PASQq1vsdCIiCGGiIiIzi9X4fWwZy1Ka92OqocZZIiIIYaIiIjONwHecR/XndH+7CDjr30cUBMsOiIa/p+A7BNDNDK1tfuQUBTk5WSxMIhGsEyHATbbSuAquqFzUkHBCiURBIB+D8NMRMQQQ0T9tu6tXXjw6ddhkkTYrBbYLCZYrVbke5Nn/bZakkdbN5stSY+ZzL3XM0lij39rL+vJabfpHneqY7GYtUeDt9v0R92x2ywpH7eYpLNeb/I+rBr7tYiA1OP1SZLU499i0mMAIInvP95jv6Iovb/s/b/fH2FHFLv/L4jC+8sEXtSkG2T6MxGid+ydAz7LPBHRYOI8MUQjVHVDKwBATigIhCIIhAAggJqGlvPzYSOJkBPKiN3fuXxdvcKXyZQUoHqypQiFNnNneFLFs4KnoPYKWWfvzywKZwU/c1pBNN1A/JkPXsU3bh+JJg9yJ3+j3xMhEhExxBDReVXf2DykjudcB4qRGGBSvS45EdNdvzO8Dn1lEwr5pu2vMxMh5q1EsGkDwu07dSdnBDqblllcZbC6Z7L8iIghhojOv+rGNhYC0SgkWYrgGXMXPGM+AjlSDTlaDyURhqpEIAgmiCY3JHM+TLbiYT8JIhExxBDRCBIIRdDcHkh+w0vGAxKO1BoMGvqi0e5aJavVwgLpNwEm2ziYbONYFETEEENEQ9+pmsZef0caKjFhTCHKJnfezOTl52FcUW5a20oo3f0gEonUQ7PKSu/gk2q9hE44isfljAKVnJC1Q5jcvSyWwUiyQbkz4DnUCEJC9+AD5ngAIRjfUEdjclr7icfjqR9X1LRef0JO/aK0zg0AROLpFUTE4DVoncO4LPc7FIdCEbyzbScAYMniC/gmJiIihhii0ebk6fqkxzxuV9e/bZb0f+WWRLXHv1PX5FiSppw6tx8tCUWAJKpd/x/Y5+Tzghrgc2UUuoiIiBhiiEah0/XJnfodzu7aBafTPqJe75kQkm6A6etzaCDPFedaJiIihhgi6uF4Ze+aGFN2IWaWTe76e86MqZ3/SDEM69mtfxSl+xdzVVXPWqbdVCih1+QrYRwcZJ0mSun8ii/Lis7+4xmV59lNotSEzItsEJ2ZL4eIiIghhmiUiEZjSXPBTB5fgvwcNwAgKysL48YUDeFXoAKqCgyJG9kzYct4oknlrICn9ujjcnbYSxX+FPXsddQUAdO4f0mqPjMJ3bCZ0FmWwfMGMBCLrKUhIiKGGKLRpbIuuSlZtsfZ9W+nY6g3JROAITM7ffrHIZ59zFL335I02DflasbHS0RExBBDREPGiRSd+gu9PfvDOFlIIw7DCxERjS6ssycaYSpqG5NDTI6n699ej4uFRERERAwxRDR0lFed1alfEpHl7mxCJkimYdCcjIiIiIghhmjUUFQV5dVNvR4rer9DPwC4GGCIiIiIIYaIhpLTVXVJj+Vldzcl6znhJRERERFDDBGdV4qq4lR9W9Lj7NRPREREDDFENDTfzIKA45XJNTE5bkfXv10uBwuKiIiIGGKIaOioqkkOMfk9+8Q4GWKIiIho+OM8MTQqHKwS8OdXTaht7X6sNF/FfR+Vh+V+tJT33DGAvKzuPjButzt5QsYhJlHfiOZv3zeo+8j67EdhvWB2Rs9RfH5E3tmF+MlKxE/XQA2FoYQjECxmiDYrBIcdUk4WpJIimEvHwjxpPKT8XMPttv3ij4gdKx+w15b9tU/DMm0y3/BERMQQQzScNfkE/OMtCVuOCCNiP1pUAHX1TQhHY70eL8zuDjFOh40XRIaUlnb4n3oJ0d0HoMqJ5HKPxpCIxoAOP+S6RuDgse4P1+IC5P7wayxEIiIihhii9CQUAS9sF/H0uyKi8eG/HyMCgKOnkye5zM7ydocYJ0cmAwApOyut9UJvbEHg6XVQzwqG3YUuAKqqfW00tbCwiYiIGGKI0rO3QsTf3pBwVsuqYbufdJ2qbkh6rNhj6fq31+vmB15xAUylY/VXUhX4//k8Qm9uTbnYXDoWrpuuhnnyBAgWM+TaRkT3HkL49c1IdPj5BiQiImKIIUpfk0/AX1+XsPOkMCL2k6nquuSamILcLHQ2NgOcdk50ab90meE6gWfXawYY66wyZH3uHsDc/dFpGlME05giOC5bjrb7/oR4RTXfjERERAwxRPqiMvDCdgnPvCsiRbeFYbefvjpR3dTr77wsFySxM8DY7U5I0ugejFCwWmBfvkh3nch7uxFc90bKZZLXDe9n7uoVYHpv3wrr3BkMMURERAwxRPoSioCvPGRCY0fvx61mwOtA0uNDfT991dDUgkAo0uuxHG/3xJZO5/CshTFPLoV13ow+PVeuqEZk1/6uv22L50GwWjXXV4Ih+P/xrOZy141X6z4fAEwTxvX5tVrnzYR58oT+faDn5fJDgYiIGGKIhjpZUbsChEkC5pWquHiGgkVTFLy2V8TDb0rDaj99daouuWNOQU5W17+9buewPL+O1ctgW3JBn57b+tPf997WKv2mZMHn1kMJhVMuk7xu2JYvNNynZfokww7/ms+dVQbH6uV8UxMRETHE0Ii/gEUBCyd3BwqraXjvp68qa5qSHst3djcfc7mG4chkggDL7Gl9emrs6EnET1Z0/W0uHavboV/x+RF++z3N5bbliwHBuDmeYLXCVJTfOdwyERERMcQQpSKJKr55ozxi9tMXKoCK6tqkxwtzs7tDjNMx7M6tecIYiH087uDzG3r9bVQLE974Tsp5YM6wzCpLe9+W6VOgdPghmPnxSkRExBBDRCkJAE6e1anf5bDBYu6sOTBbLDAPwxtq69y+9YWJHT2J2LHy7vKxWmBdPFf3OZHte7XL1yTBMin9viruD98I94dv5IVJRETEEENDWTAqwGlVWRDnSVu7D83tgV6PFeR0zwnj9XiGzWuRCvOQ//P/6gwPrr4NRnB2LYx92SLdDvlyTb1u8y/T2GLNEcmIiIjo/BBZBNRfFY3AZ/9ixr93ighGBRbIOXaqtjnpsfys7j4wLucw6tQviBBzsyDmZhmOBJbK2bUwAGBftdTwOXpMY4t5kRERETHE0Egza5yKmeNUPPymhLsfMOH3r5hQ0cQwc64cr6xPeqwky9YdYlyOUVMWZ9fCmCeXwjSmSPc58fLTusulgjxeZEREREMM20jQgLj70gR2nDAhEAE2HhCw8YAJpfkqrl6gYEmZyuZmg6imIbkmJjfb2/Vvt3N0hJj4yYqkWhjH6mWGz5Mr9SenlDxuXmREREQMMTQSOa0qblma6DVfSkWTgD+ul/DoJmDRFBXXLEygNJ9hZqBVVPeuiXE5bHC8Pwa02WKB1WoZFeUQfOHVXn+LDjtsC+YYPi/R2q67XHB3Ns1TgiHEj5VDrmuE0tYBNR6H6HFDdDpgGlcMy9RJ7DtDRETEEEPDzTULFWw8ICY1JWPtzOAJhCKoburo9Viup7vmxekYPbUw0YPHej1mW77YMFQoPj/UaEx3ndiREwit34jY8VO6k1gKJgm2ixbAec1lkPJzM34NibpGhDe9C7m6DnJNPRKt7VBDYaixGCBJEG1WCA47pII8mCeMgWnCOFhnTmVwIiIihhii/rp7dQLfe1z7supZO3PJTAXXLlKQ72GY6atTNcmjahXl9WhK5nKOinI4uxYGABwrlxg+Tw2FDdcJvfpWWsegygmEN29H5N1dcN12HRyrl2f0GkJvbtVeKCeQiMaADj/kukZE9x4C8H5t0/LFcF69CiKbvRER0SjCjv00oGaNU7F8unEoCUSAdbtEfObPJvzgSRPe2M9LsS9Onk7u1F/g6g6RrlEQYlLVwljKJkEqKjAOHpHYgB+PKifg/+dzCDzzcr+2I1gtEEyS7jpKKIzQq2+h5dv3IfLebr4hiIho1GBNDGV+kwag2SegsQNoDwpo7BBQ2yagogFdTclMEqAzAXov+ysF7K+U8OYBEd+8KcFmZhk4XZ/cqT8vJ6vr3x73yA8xqWph7CsvSu9aTsiG69hXLIZlxlSYJ4yB4HZBtFgg1zci8Nz6rhqRlMf18pswTy6FdV56k3ZKeTmwXTgftgVzIBXndw0xrfj8iB0+gdAbWxE/WaEZZjr+8k8gLsO2YjHfGERExBBD1NN/P2ZCQ4eAtoD+ejYzEEgzxLhswC1LE7hmocICztDZwyvbrRa4HZ03v2aLBXabbUS/frmiOqkWRvK60+rQn65UfVxM40qQ9bmPov13/6cdZFQV/seeg3VuGSCkrlHJ+uLHuv4tWMyAkFwjKXrcsC25ALYlFyD4wgYEUoS2Mzr+70mI+TmwTJvMNwcREY1obMNDGYnEYBhggM7mYulYOFnF7z4pM8D0QTQaQ01DS6/HCrK7J7kcDZ36A88mN9lKp0N/RhIaaVwQ4fnQjYCgPSdSorkVkW37NJcLVmvXf6kCTFKgun4NbIvnaa+gqgg8+RLfHERExBBDI1+TL/2JKUsLUz+e7QKmj1GxanZ6fWIKvMD3bpfxzRtlNh/ro8q65KZk2R5njxBjH9GvP1UtDAQB9osvTHsbQho1VWpcu8mZmJvVOUKYXvDftmdAX7frpqt1l8crqhE7dIxvECIiGtHYnGwUO1YrYssRAR0hAV+6Vk7rOVkOFatmAwVeFSXZKsbkqijOVmHtcSX97Fnty8plA9YuVHDr0gRPQD+dSNGpv9DbfVPudI7s/jCBF5ObVVlnTs1oeGMxnT5DCf1aQvO0yclhqlfYqhrQ1y3l58JcOhbxCu1JOqP7j8Iys4xvEiIiYoihkWPLERFvHxax82R3J/z2oIAsp3GNyIcv0Q8fTT6ha7tnWzhZxccvS3BI5QFSUZs8vHJhjqfr316Pa8S+drmiOmVfFPuqpRltR3Q7O5uD6cz/okSj+h+ixfqjoCU6/FBa2iHmZg3Y6zdPHK8bYmIHjgC3X8c3CRERMcTQyAgvL24XcbKhd8iQE8CucgGr5/Q/XGw8mNxCscALfOYqGbPGMbwMpPKq3jUxJklElruzCZkgmUZ0c7JUtTCS1w3r/JmZbUgQIXlcSHT4NVcxmktGyssx3I0SCg1oiJGMglNrO98gRETEEEPD294KES/vFjVrSKxm4ES9gNUDMKDTxgPdIYZNxwaPoqoor27q9VhRTvdkh64RHGDkqtrUtTArL0qrc3xSICjM1w0xik9/JAvBZk0jxIQHtAxEp/6gDWo0BsTlgR3ggIiIiCGGzoVjtSJe3Sdi44HU4WXOBBUrpitYUqYOSOf6HSdFNHZ0/ptNxwaPCuB0VV3S43nZ3U3JPO6R25Qs8Nz6FElCgH35hX3anmnCWMSOlWsHkA6ffogRJcN9GE1amSnBYjYOTrEYRIYYIiJiiKHhpqxEwb+2JP8yfcU8BcunKwPevOu1fSKbjp0DAoBT9W1Jj4+GTv1yVS2i+w4nPW6dO6PPzbUsZRMRevUtzeVGTbNUxbim8exR0NQe/WzOTGqZUZCNxQ12KEB0pD9HUGTzds4vQ0REDDE0dNywWMH+ys5fgZdPV7F2gYKykoGfkyUYFTC5SMU3b5RZ6OfA8crkmpgcd3cTI5drZM4RE3zxtZSd8O2XXNTnbVpmToVgkqDKqcOIXNekv4GEcYg5exQ036PPIPLuLgBA/q+/A9Hjzuyg4/rvM9Fuy7hpXdt9f4Lr+ivgvH4N32BERMQQQ+fXvFIFV8wTsGSqinmlgzehpNOqsu/LOVRV0zvEmCQR+T37xDhHXoiRa+oR2X0g6XEpLwfWudP6vF3BaoVFZ5hkuboWUBXNUKAEQ7rbl7zupJDSs3lZ7PAJ2JZckFlZNDbr77O4MKPtifmdgxMEXngVkd0H4f3Y7TCNK+EbjYiIhixOdjkKfOqKxKAGGDr3ymtbe/2d1aMWxu12QxSEEfeag89v0KiFWdKnDv092ZYt0lymRmOQUwxn3RViDDr+myeXJgcne/fAC/ETFZkHuspq3eXWeTP6HharatHy/fsRemML32hERMQQQ0QDo7a+CeForNdjhdndHfmdGfSFGC60amEEkwT7isX93r7twrm6QyXHDhzVPra6Rv1AMTc5UAg9OtzHMgwxajSK2NGT+vucM73fZeL/53No+8UfobS0801HREQMMUTUP0dPJ980Z2d5u0OMc+SNTBZ8KXVfGOsFszPvT5KKIMF141Wai8Pv919JJX6yUnOZ5HWnbCrWszmZXF3Xq6O/kfDGdzX77wCAbcGcAWsKFjtWjpbv/xqRzdv5xiMiIoYYGhgVTQILYRQ6Vd2Q9Fixx9L1b6/XPaJer1xTj8iOfSmX2VctHbD92JZcAOusstTHUFWL2KHkPjNKMITYkROa23SsWZlyrpZeI5KpKmJHytM6xkR9I4L/fl07i1ktcN101YCWvxIKo+PhJ9D+wEMZhS0iIiKGGEqy46SI+54z4WAVg0wqwagAf0S/bGIJAe1BAeow2E9P1SmaLxX0GF7YaR9ZE11q1cJIeTmwlE0c0H15PvVhzWZlvkeeTmpaFXjypc6JJVOwziqDY83FqXd0VrAJPPUSIpu364aE2KFjaLvvT9oTZwoCvJ+6E1JRQeZfBGlMjhrdewjNX/sxoima9REREZ1rghqo4oQew0xtm4D/eNgEOQFYzcCXrk1g0eTR2XE/KgNPbZXQ5BPgCwMtfgEtfiAaz2w72S4gx6kiywXkuFSsmqX2Gor6XO0nHXf95wMIhCJdf+dlufChy+cDAOx2J5Ysmjtizm+ivhHN//3LlCHGfeu1cFy5csD3qbS0o/W+PyLR3JryZt++aikEmxWxA0c1J8k0Ty5F1hfugagxSlxk83Z0PPxE8geySYJ50gSYxhRBzPZCkCQk2n2IHTkBuapW+4PcaoHnrlsyHuWsp4ZPfC3tde0rFsN9xw19muOGiIhoIHCI5WFGBfDgaxLONImPxjtvqEcrOSHguW39r1BsCwBtAQFoAAAB+R4FZSXnfj+GN5pNLb0CDADkeLvnIHE6R1YtTOCl11MGGMEkwTYAHfpTEXOzkPv9r8D38JOIbN/bO+CEwgiue0P7yYIAx6qlcN92XcpmZN0pJ/UyVU4gdqxcMxylYp1VBs9dt/Z5ss++CG/ejtiRk/DccxsnyCQiIoYYMvbwGxL2V3aHlivmKbhyPudnGS1O1SXXDhTkdN+8es+aVHE4S9Q3IvLe7tQ37ovmadZyDATBaoX3/90Jx+UrEHptM6L7Dms2GwM6O/Bb5kyH86pVaTXnskyZCNf1VyBeWQO5ph6JlraUYU1zf3k5sM6ZDvuqpTCNKTo/56e5FW33/QmOKy6B+/br+OYkIiKGGEptyxER63Z11wZMH6Piw5eM7vlfnFYVT341PmL2Y6SyJnn2+J6d+l2ukTMymVRUgMK//OK8HoN5cim8k0uBuIz46Wok6pqgBENQEwmITgcEmxWmscUwlRRkNFeNmJsF5/Vruh+Iy0i0tCLR4YfS7uucQDMuQ010/kAh2KwQnQ6IbidME8YOaoDLVOjVtzqvvQ+sYfMyIiJiiKFkr+zuvkmymoGPrFTgtLJL02hSUZ3cLyI3q3s0MtcQurkdUcwmmCeXppy4cqC2LxUV9KlT/mBzXLoM1gtmQXS7BmzoZiIiIoaYUWL9HglHarqbkd1woZJxh3Aa/k5W966JcTlssJg7w63ZYoHZzLc0DZzBGjyBiIiovzjE8jAQldGrGVlJDrB2AQPMaNPW7kNze6DXYwU53bUwXo+HhUR9dnYti3XeTAYYIiJiiKG+e2G7hNoe/bnXzEuwGdkodKq2Oemx/KzuPjAup5OFRH3/MrDbuv4t5eXA+6kPsVCIiGjIYtuTYWDVLAUOi4p3j4mIxIDL57EWZjQ6Xlmf9FhJVveNp8vF/jA0MDz33MZO+kRExBBD/ZPvUXHNQhXXLFSw46QIK8/aqFTTkFwTk5vt7fq3m536aQA4rriEc78QEdGQx+Zkw8yiyayFGa0qqnvXxLgcNjjeT7RmiwVWq4WFRP0i5eXA9YE1LAgiIhry+Js+0TAQCEVQ3dTR67FcT3fNi9PBWpiR5rnXt6G1o3Mgh4ljC3HphbMGfZ9Zn/1oZs3IVCWj+XGIiIgYYohGkVM1jUmPFeX1aErmYqf+keb19w6gpqEFALDigmmDHmLcd9yQ0TwwajQK318fh3XhHNiWXMATRkREDDE0fP35ydeweddhFsQASySSmxEWuLrfvi6GGOrvl0EGAUZpaUfHXx9D7Fg5Irv2QwmG4Fi9nIVIREQMMTQ8RWIxBEIRFsQ5kJeT1fVvj5shhs6d8JZtiB0r7/rb/8/noEaicK5dzcIhIqJzgo2ZiYYhu9UCt6Oz74LZYoHdZmOh0DnjvH4NXDdd3euxwDMvI/DMyywcIiJiiCGiZHIsAquowB8Idt5QslM/nY8gs3Y13Lde2+ux4Lo34H/8RRYOERENOjYnowFVmJOF+WXjEIrGEGKzsgERiScgRyMIxBTICQVyWwNMNhXN7QG4XU44HXYWEp0XjitXAmYT/P98ruux0KtvQQ2H4bn7NhYQERExxIw2/94pYGyuAK9TRb4HcFrVYXHct1+9DMAyNLe248BBdvAfaE2tflSczoPv/VoYAHA62R+GzmOQWb0cgiTB9+jTXY+FN2+HKifg/cQdLCAiImKIGU02HpBQ0SQAAOZMUPGdW2UWCiEQCsEkCcjxuroe83pcLBg6r+wrL4IgSeh4+Imux1R/AGo0mtm8M0RERGlin5ghqtkvdP27KEtlgRAAIBqJ9fpbkExsTkZDgm3FYng/+SEAgOR1w33nTQwwREQ0aFgTMwQFowICPbqTFGUNv9fgdbswb84snswBNm/OLMTicQSDIcRiUciJ0RtwFVXF7r0HsX33IRwvP43GppauZnZmkwlutxM5WV4UFeSidPwYTJ00DjPKJsNqtfRrv+UVVdiyfS8OHylHVU0dwpEoQpEYHDYL7DYrcrK9KMzPw7hxRSibOB4zpk+Gpw/z+JgEFSZpeP3OdGbSSykvG1J+Lt+wREQ0aAQ1UMWf+YeY2jYBX/xrd76898oEVs9RWDCjXs+3qjCqw8trb27FY8++gobGloyeazab8IVPfgiXrbwo4/0eOHwcD/3zeRzuMT9Kep+yIq6+bBk+/34tBREREfUfa2KGoEC49w1qrptlQqM7uJzR3NqOn97/oH6QEERATR3643EZre2+jPYZj8v408NP4OXXNvdpn1AVNDa38vKlYS+6+wCCr2yCXFkFwWKBZe4MuG+8GmJu1pA9ZiUYQvC59Yju2g8lGIJUXAjnZStgW7F40PbZ8v37IVfVprVu7vf/A6YxRby4WNbEEDMyxM9qImSSWFlGVF5Rhe/+7A9oaetIWmY2m3DLDWuwZtVS5OflIByO4MCh43jlzS14b8f+Pu8zGArjOz/9vWZounTFYtx83eWYMG4MZFnGqcrT2LhlF15+fTPicQ7GYUSuqO68qTDzq2ioC657o9dkpqocRuTdXYgfPo7sb352SDYfVHx+tP7kd0j0+BFBrqpFx8NPIF5TD/ft1/HEEjHEEBENnoamFnzrRw/A5w+kDDDf/8a9mD9nRtdjTocdSxbNxZJFc7Fp63b8/LcPZf5jQlzGD37xJ80A85Hbr8cdN13V9bckWTC9bAqml03B9Vdfinu/+kMGGQOhjVsRP1kJ29KFsK+8CKJz5E/c2n7/XxA9eKz/GxIECJIIwWKB4LBD9Hog5XhhKi6AacI4WKZPGrCBFRL1jQg8+0rqZR1++P/+DLK+/MkhV9b+x57vFWB6XXuvvgXbojkwTy4d8P3mfPMziB0pR+zAEYTe3Mo3+iBiWTPEEBENWWfCRKoAAwB33nptrwBztosWzoPZbMo4UPzp4Sew//DxlMuWLJrTK8CcraQoH9OnTNR8PgHRvYcR3rwdABB45mWEX98M64I5cKy5hIMCpENVocoJqHIYCIWRaG5F/GTvkGOeNAG2JfNhW3JBvwJiZNcBQNVuERA9dHzoDaetJhDdfUD/de3YPyghRrBaYZ03A+YpE3hjPchY1gwxRERD1r+eewWnTtdohIUC3HTt5brPt1otKB1XguPlp9Pe54HDx/Hy66m/EM1mEz6dxmz006cxxOgJvrih19+JDj9Cb25F6M2tsC2eB+fa1TCNKxlxr9tz162IV9chUd8Iua4Bcl0T5MoqqHJiwENO/GQF4icrEHh6HRyXrYDzmtV9ChpKiiacZ+9L8QUg5Q+dEKOEooZlqmj8MEJEDDFERP3S3NqOp57foLn82isvgZTGMMQzyialHWIUVcUf//aEZkf9JQvmojCNmoKZUyfxBOrI+sLHEN68HeG33ktq8hPZvheR7XthnVUG5/VXDMqv5eeLmJsFa24WMK+79jCdzslZn/0opLwcIKEg0eGHGokg0dKG+NGTiJ2ogBqNaWeMaAzBdW8gsm0PPHfdDMvMsoyOWcrL0V0umCSIQ2zSXdFhg2C16JaLlJPFNyIRQwwNtPs+KsNpBRxWwGZKgPOS0mj01PMbNJuBmc0mXLFqaVrbmTNzMl54ZWNa627fuV+z5gcArlyd3vDMZVNKeQL1bjI9bjjXroZ95UWIbN6O0Jtbk8JM9OAxyNV1yPvVd/hlXVwAqagg+Yt77WogLiPy3m4Enn0ZiQ6/5jYSza1ou/9BeO68CfYMhhm3LZqHwLMva9ZsWOfOHHoTmwoi7MsWaTcxEoSueY2IaJh+j7AIhp5Z41SU5qvI86hwWNW0fmkmGmmi0Rhe2/Su5vLpUybC6bCnta1pUyfD43bB43bBbDAS1jMvva65zGw2YfaM9H7Fzs7yYOqk8fC4XbBbbTyhWl9CTgccV65E7ve/AveHPgBTcUGv5fY+zOkz6phNsK1YjLyffQuOKy7RX1dV4Xv0aUTe74+U1jnKzYLnzpsBIXmYdykvB+47bxySxeK6Za1mk0TXjVdxuF2iYY41MUMYZwWh0ezdnXsRCkc0l8+eNTXtbeXlZOFfD/7CcL22dh/2HzmpG5ysVkva+/3tT7/JE5nu553VCsfq5XBcvASht99D+O1tkKtqYU+zto06w4z79usgmE0IrntDd1Xf35+GaWwxTKVj09q0bcViSMX5CK57E3JNPQSzCZbZ0+G89rIhO6qcYLUi55ufQWj9JkR2H4QajsBUmAf76hWwzpvB64WIIYaIaOBteXev7vKZU0sHfJ+b39ulPWklOjvrnyvr3toFf7AzxE0Yk4+L5k4dHSfebOoMM5dehPBb2yF60pvtN7zpXQRffhPmKaWwTp8CqTgfprHFQ6+Z0znguulqKD5/1+hvqahyAh1/fQy5P/iPzsla0zk1k0uR9fl7hl04dl6/Bs7r1/BDlYghhoho8O07pD+XxtgxxQO+z/0HT+guH19y7pqfvLx5D2oaWgAAKy6YNnpCTNfdp5RRU7Lw1p1INLci0dyKyLu7um+8S8fCPHE8pOICmIryYSosGNIzzHe+dkF3SOO0gsyt1yK66wCUUFhzHbmuEaE334Fj9XJ+4BARQwwRUX/V1jdpzgsDdPZNyTcYMakvDh87qbt8THEeT84QlahrSPl4vKIa8Yrqrr+ts8rO68SM0d0HoPgCSLS0QfH5ofiDSDQ2916pnwEG6OxrZF+11LBZWWjDW3BcujTt2hjKIIuaJBYCy5oYYohoNDlVqT8cck62F6IwsL3GfIEgWgzmw8jOzubJGYKiew/DumB255wr1bX6w+oWpB9EW3/6e8iVVYAkQZAkCGYTYDZ3/t9kgiCJgGSCZdokuG66Oq1tdvzv3wd+ThgNjpVLEXz5Td1QlGhuRXTfUfYRGYwba5E31ixrYogholGltr5Fd7nH5QTQOafLqYoqHD1ZiYamFgQCIZhNJjhdDhTmZmP2zDKUFOWntc+GhibDdTzuzv02NLXgyPFynK5pQHu7DwCQleVBlseFmWWTMLF03ICHLNJmnTej6yZcaWlH/HQ14qeqkKhven9CycbuEJNBDZ4aCnUGDjkBvboRU3F+2tsUs7xJQ0kPFjE3C+YJY3rVRKUMgbv3M8Rk6Mx1pgbDSPj8ECQJotMBwWmHlJ3VOfKZ2QTBJA1KaE00tUCuroPiC0AJhrr2L+Z4YZ484dz0BVMVJBqaEa+sgdLug5pIQHQ6IBXlwzJpAmA2jYiyJoYYIqK0tbS26y6X5QT+9NAT2Lhlh26zMwAYW1KE2z+wBqtWXKg7XHljs35wgiDipfVv4dWN76K6tt4g7LhwzZWX4KZrLkt7GGgauBt3a24WrBfMTrrpi5efhmBLf7jrhMF12HWT5Q+mf3xeT1eIEawWSDlZSLS269Ye9YdlZplhiImlGJFPjUbR+Nlvp7UPwWpBwe9/3L29oyfRdt+fMj5W101Xw7l2dcplrT/9PeInK3SfX/jgffA//iJCr76V1v7ct14Lx5Ur07+ZDoYQWr8J0d0HegXjlGVikiClMSlupjfzwVfeRHT/Ed0gLJgkmCdNgPPay3QnNu34wyOI7NpvfKNYXIDcH36t6+/4yQpE3t2N6K79mvMSCVYLHJetgOu6K/oUZs53WRNDDBFRn7S2+XSXnzpdozshZU/VtfX41R8ewQuvbMR/f+3TyNOYpbvDH9LfkKrgoX8+l9Y+ff4AHntqHf69/i18+z8+idkzpvKknmdSfm7GNzqOy1Z0nvq4DMgy1Hi885feRAJqLH4mUUPVGQo8KeDeeSNErxui2wEInU1gWr5/P+Sq2sH5kk9jLpREcysUnz9pJLi+/rJ9XvonvF/zKZgH57Ym9MYWBJ9brztQQq+PCzlhePOdNlVB4Nn1CG3YlNb5UOUEYsfKEft1OWyL58H7sQ/2q1Yk0dTSOaHqrv0IvrIxrWtVjcYQXPcGYkfLkfPV/5fR/s9rWRNDDA2M2jYBta0CqpoFtAeBe1azmpRGh3giPuDbPF5+Gl/+1s9x/0++kTLIxGIDv0+fP4D/+vED+M5XP4WF82fzxA4z6fZzyehLV2PyxUH7ki8pTGs9uboOlpndIUawWpH/2+8jfrIS4a07e434ZsQ8uRS53/4igus3IrJdf6h066wy2BbPh3nKBEhFBZrr5XzzXsiVtYiVVyK04a3u2iyTBM+dN8Nywayuc2ZfthCxo+UIvrBBs6YgkwDh/+fzCL25VXMV0WGHdcFsSDlZUOUEFJ8/rf5Z6X0Yymj/06OI7j2UuvzmzYR58gTET1amXCeyfS/UUBhZX/p40uAN7jtvhHXuDET3HdatkVHlBJr/+74+NYOMn6yA/5mX4b79uqFf1sQQQwPni3/tPj3ZLoYYGj2iEf1AUViQi7WXX4wZZRNRVJgPt9OBaDyO7Tv3448PPaE5SWZLWwd+ev+D+MX3vpLUtCwc0f8CNJtN+MA1qzFz6iSUThjT1T/m6PFT+N+Hn0JldV3qL/G4jPt+9wh++9NvoJBNHugckwrSu+YSTck3qILVCsvMMqjxREYhBgBMpWPhuftWxA4e0/1FXXC7YFux2HiDgghT6VhIxfkIPL2u62HbRQuSni8VFcBeVIDw2+/1O8QEnl2ve1NtnVUG72fuStkHRfH50fSVH/Tvh5B/PKMZYFzXX9Fr/hvfw0+knBsoevAYwm9tSxqyXPS4YVuxGNbFcw2blSWaW7uaqYk5WRDdLij+AKK7DxiGh/CbW9KaFPV8lzUNPxxTcQhbOLm7K2lbgOVBdMbMskm49YY1mD1jKvJysmC1WuBxOXHZyovwo299Rne42MPHyrH+zS0Z79PjcuKeOz6AJYvmojA/F3abDXabDfPnzMAvf/hV5GZ7tW9E/AE88q8XeOLonBOs1rSadykdvkHZt33VUv0fLHbshdLSnv4PHNv39bppdqxaNmhlJ1dUI7Rhk3ZAzMtB1ufu0e5EL/WvWV3s0DHNCUslrxvOq3v3H3JetUo7IDy9TnciXyOum65G3q++g+yv3wvvJ+6A+/br4P3EHcj76TdhKi7Qfa4qJxA7cHRIlzUxxNAAu3BK7w+cY7U8XTQ6SKa+X+vTy6bgiksW6a7z3L/fhHLWsLMmqe/7dDrsuPuOG3TX2fzebjQ0tfDk0rn/ojf4BRzIbHCCTDguX6EbolQ5gdCmd9LeXmhj9y/15smlMJWOHbRy8z32vG4fFPft1w3YCFwpg8czL2sus8yZnrRvqagAkted+vyGwojuOdTnY7HOLEt5HYkeN7yf+rDh840GlzjfZU0MMTTAlpT1vsnadYpDttLoYLfqjyAVj+s3rbziUv0ZyKtr61FR2ftL1Waz6D4nHInqLl9x0QI47DadY5bxjkH/gJ5+/bW78NgvvojHfvFFfP7Da3lRUN+ZzefvJsPjhnXRPP331sZ3oEajhtuSq2p73Qw7Vg9iLUxNve5oaJLXDev8mYO3/7Ne69lM48ekLu887eaDWs3S+ss0rsSwr5eiM4rk+S5rYoihQeC09g4x7xzl6aLRwe3W/+U4HNUfDWpG2WSYDX61O3i097CyZ/q4aIYQWdZdbrVaUDa5VHedQ0fKM7jvNMFqtcBqtRi+FiI96YzYpcbjg7Z/p8EwxkoojPCWHYbbCb/1Xq8bW9uCOYN2zFrNuM6wzJmu22y1v4wGRJByU893JLq0PzvjlTWDdrzmCWP0ry+dEfzOd1kTQwwNkuljuoNMbSvLg0aHrCyP7vJYVP+GS5JEjC3WH5Wp4nTvYUK9bpd+iInLSU3QzjZ+rP5wtuWV1Ty5dM6pcTmNoDN4tTWmcSWwlE3SXSe04S39PhtxGZH3dnf9aV950aA2L4of1//BwTJl4qCes/iJCv3POI1mY4JO35BEXUO/+sXoXj92+7Ataxq++PNeCjtOinhqq4jKZgE2MzCvVMWHL0kg36Oe82O5qEzBkZruD6VjtSLKSpI/hIJRAf94S8SOkyL8YWBsjoqrFyhYPUfhCaVhpzA3W3d5IBgy3EZBQY7uXDKt7R2918/PM9xmOBzRnbyyqFB/G+2D0HmayPguMY1aFtPg3g44rlyF2DHtm9VEcyui+47COm9GyuWR93Z3jXImmCTDAQP6V14yZI3RBrtCRHH+oJaX0f41A5xFO4yqcgJKKJJWH6lzd22e/7Km4Ys1MWd59j0JP39WwskGAXICCESALUcEfP0RE5p8575PyoVTewenvZXJx9Ae7Dy+V/eKaAsAcgKoaBLwx/USHnqDI3bQ8FNiMNqNz288XJ/DYGb2ULB384bC/FzDZlsdPv39Wiz6v2aHIjHD2hyi83IzYNCcsr+sc6cZjmIVWr9Re9nb27q3dcHspIk5BzRANDYbTiopZWUN2v4Vn994okdFgRqNJv1nKDK05lI532VNw9ug/fTygydN2F85MDf9JgmwmQGHFchxqch1A2NyVUwsUDFjrJrUd6SvatsE/PPt1LkuEAH+uF7Cd26Vz+kJOrv2Z1+FgFvP+gHq4TclNHakfv66XSKWT1dT1t4QDVWTJ47rbAOt0fShpd0PRVUhCoLO54b+5490VrMLSRJROq4Ex8tPaz6nta0dJUXavwpaz2MHaiLN+900ai6lQQwFAABBhOPyi+F79GnNVWLHyiFX1SZ1Ej+747fj8hWDW14B45HaBJd90PafzqSNLd+/v2+vLRIZUr9en++ypuFtWNTEnKkRaewAjtQI2HJEwBNbRPz8WQl3P2DCfz9mwvo9EoLR/oWm947pF8f+SqHf++iL0vzuIJN71vdMQhHw3nH9Y9pyhKOa0fBit9kwcVyxzre8gta2DoPPDf0fN1wpmlTMMGi339CoP0RyIqH/i6LH5dANXkQDf0McNfylGzg3TXZsF10A0aF/QxpcnzxXSM+O36ZxJTAbDKDR7zJLo7ZCsAzeDxZqMDyIqWFo/aB5vsuahrdBq4m598oEKpsE1LYKqGoRUN8GnKjvbKI10I7UCDhSI+DRTSKuvkDBLcsSsPbhlbWnMUx+RwhwWs/tSbqwTMWXr0+gJDv5piwSh2GZdoR400TDz9x5s3T7tFTX1CEvJ0tzudEwzKlGQLtgznS88MpGzefUNjbrByeDGwTXUGqLTqNCornNeCVBgGls8aAfy5nJL4Pr3tBcJ7pjL5Tbru1uLhaXEdnSHWKcl60Y9ONUIxHD8hrM0bLUhDxqrs/zXdbEEJNSvkftbAo1ufuxr/2fCRVN+jfU37gxgTyPilhcQDh2pgZGwP7TAo7VCtAblCgaB57bJmLTIRGfvSqBeaWZ/eKQa1CbbpKAXPe5b89+61LtmzGHVYXVDN1yOR8DEhD118oLZ+P5FzdoLq+oqsP8OTM0lxt1/i8dnzyvwfw50+Gw2xDSGA60vKJK/wcDn/4vIZMmjOWJpSEXYkxF+dozoQ8wx+UrENqwSbN2SJUTCL22Ga6brgYARHbt7+ofIjrssC25YAjceauAmgCEwelzKlgsxvdYP/8viLlZoyDlDG5Z0/A25OJtSY6K0vzOPhzzShUsn67gxiUJfOdWGX/9bBz3XplAtv5IqGgLAD96SsL6PZld9EunKdCZWBhLpqp9quEZTAKAS2bqh7XlM9gfhoaf6WVTMLZEe8hiozlX2tr1m5vNmVGW9JjVasHK5Ys0n3P46CndjvkdBqOPzZw+iSeWzim5ps5wHcvs6efupiPDyS/Dm97tety+auk5mbU9nUEO1Njg1ZYINuNAqSqJEXF9nu+yJoaYc8ZqAlbPUfDAJ+JYu8D4xvzB10S8sT/9l5jvUfHJy1N/MBR4gbsvHZofGh++ROnVb6anD12svYxoqLvluss0l+3adwiJROrPAUVVUdvQpPnc3Gwvxmv0ubn5uis0my/4/AGc0qmNOV1dr3NnIuLCDCbne+71bfjbM2/gb8+8gTe3HeTFQH0SP1lpuI5t0ZxzekzpTH4ZeXc3EvWN3cMyCwIcK5eek+MTrMY1IYovMHj7dxh3ZFdj8RFxfZ7vsiaGmPMSZu5ZncDNS42DzF9ek3CsNv2XuXqOgu/dLmPhZBUFXqAkB1i7QMEv7pKR5RyaYcBpVfGjD8u4bXlnYCnwAnMmqPjGjQncuCTBq5yGrctWLtWsjQmFI9ix+0DKZacqqhDXmeDv5uuv0OxgX1KUj6svW6b53Ne27NIMTsd6jKB0tiULZ2mObPbuvuNJj73+3gG8tGknXtq0E7sPnUzrOUS9E4yM+PFTuqtIeTkwTxp/Tg8rrckvX3sboU3vdX/vz51xzppPSfm5huskWtsH78bM6dCczLIrxBj1JRkmzndZE0PMefPB5Qmsmq0fLOQE8PtXJCSU9Du3zxqn4ps3yvj9J+P47cfiuGd1YsCGcR7MYHfr0gTu+2jncX/nVhmLJrMZGQ3zLzhJxFfu/ZBmzcgTz6fuM/PWu7s0t5mb7cWVq5fp7vejd9yA3GxvymWvvvYW2tqTm43t3ntQsy8NBBEfer+Nfyrb9h/H//xjHQIh4xuTQCiCH/z+X2ht9/MCIV3RA0cM5xtxXn3peek47bhylf53d10jwm9u6V7/suXn7sbI4zYMEYn6psENegYDLaQ1YMNwuAkdAmVNDDHnzd2XJuDSn9MOta3Aa/s4ugXRcDS9bAo+dddNKZcdPlaOR598qddjVTX1+Pf6tzTDxDe++DHYDSbC9Lic+K+vfDzl5JehcAS//uMjvWp6wpEIHnn8Jc3t3XPH9ZiqMyzshXOmYuO2g/je7/+FqhrtJmn7j5/GZ374F+w5VoULZ7N/DekL/vt1/Rvl4gLYL7nwvBxbOpNfnun8byougGVm2Tk9PlPpON3lMYMarv4yT56guzxeUT1irtPzXdbEEHPeOK0qrrzAuMbh6XdFzpRNNEx9YO1qfOT261P+YvzYU+vw3z/9HZ58fgP+9NAT+PJ//SJljYjZbMJ/3HsnZs+YmnZ4+v437oXDnhx4du45hC9886d47JlX8OiTL+Hz3/iZ5iSZ11+1Cjdff4Xuvi6aOxV2qwXl1U34r989mbIPzOMvb8V3f/c4AqEIJo3N1x1emii86V39G11BgOfuW8/f8LXvT36ZDvuly8754dkumK1/Y73vMBAfvA7ntqULO4cX1hDdfWBQ9z+aypoYYs6ry+YYh5i2ALCrnEP0EQ1Xd9x0Fb771U+lbOa1c88hPPTP5/DCKxtTBpjCglz8/DtfwGUrL8pon/PnzMD9P/46pqboM1BZXYdHH38Bjz21DrX1jUnLHXYbPvfJO/Dpe25La4LLJfM6w1UgFMED/1iHDn/3cM17jlbi8Ve6m9asXjKXFwRp3/QdPQn/Ey/qruO+44ZBnzTS8OY1jckvBasFdp0RAweLdfFc3U7nSiiMyK79g7Z/KT8X1pnaP7gkmlsRfPWtEXG9nu+ypuHLNBJeRL5HxeRCFScb9G8UdpULWDSZJ91Ie1DAiXoBLX4Boej7N2RWwGVTkeXsHDgg1630a+bxhCLgZL2AJh8QiHTux2JSkeUEXDZgSrF6XvshVTQJOFojwhcGTCI4QMIQsWTRXMydXYb1b2zFulc3o7pWfzSwqRPH4porLsZlK5dCkvr2m824MUW4/yffwNvv7MC6DZux/8hJQNX+4aSkqAArVyzCTddcBmcaowydcaZJ2Rk9+8ec3VeGTckoJVVBaMPbCDz7suY8LADguv4KOFYvP++Hm87kl/Zli87ZHDZnH5vjshW6xxZ44kVY588ctONzXn8FooeOd86Vkmr/z74CQZLgMBjtbagbCmVNDDHn1ZwJxiFmx0kRn7qi9wd7VAbu/I05vV8LzMDfv9g9rOHBKgHfezzzIrxtuaI5geU3HzUZvo4nvxrHQ29IWLcrvZuyj6xUcP3ihGGo2HRQwMu7RMMJSYHOiT8LvMDlcxVctyj9G/wdJ0Ws2yUaTlwKAJMLVSyfoWLN/ITh/DwVTQK+9n/pn4s/fEpOOQno3goRj70t9joHVjNDzFBit9nwgbWr8YG1q9HQ1IKKyhrUNTYjHInBbrPA7XQgy+vC9LLJGYUIPaIgYOWyxVi5bDGCoTCOn6xAbUMzgsHOTtNetxNejxuTJ43vczOvM03KwtGY7npsSjY6Rfcehqm1HYLVAsFigfB+fy0lGEKiuQ3xExWI7tqPRIdf52bRAs9dtwyNCSPfpzv5pSCc0w79SWHvuisQ3X0Acl1j6u/NDj/a7vsTvJ+4A1JRd/8eNRpFdM+hXnPc9IV5cilc112OwAuvaoRWFf4nX0Jk1wHYlsyHecIYSFlZgFmCGo1B8fmRaG5DoqEJ8coamCeMgfP6NUPy+j7fZU0MMedVaYHxr/Ztgc5ahrOHSjZJnaOYnbNC18ke6c7jZR/AHyNq2wTc/4KUVng5Q050Dphwsj6951Q0CfjTK5JhQOvpZIOAkw0CXtwh4qOrElg+feBGWwtGgfxefwv4y6sSthwR+KkwjBTm56IwjSE6B5LTYcf8OTMwfxCm1lgyr3dtTCpsSja8yTX1kE9VQW5s7vx3TT0SLcYjTfmffKlf+7Utngf3LddmNEyxEgwhfqISke179FdMJBBavwnmKRM6h2vOoJ+N6HHDdtEChDdvT1pmnTm11w1rWlQFcm0j4icqoLTpT3gbO3QMYpYHlhlTIHrcKb+Qsz77UbT95q9INLem3Ea8ohrN//1LmMYWQ7TboPgDkOubNGtPkr6LXnoN1vmzYJkyMeW5cV53ORR/EKE3t2puI36yAnGd4d3PkM7+8UNVIFfXI3bIeLj28Hu7YQdgmlDS+/zGZUQPHUdco09gz+s+8t7uIV3WNPwIaqDqnLXZ+dr/mQxvlH/7cRkl2ZkfUrq/xH/7lgTmlfa+GY7KwJFqEW8eEHVvYs+uiQGAY7WdNQtGN79zJqhYMV3B9LGq7us708zqVKOAF7aLaOzoDlqfvDyBJWXdzaxq2wTsrxTx9Lsi2nTmgtKrialoEvD9x00IRHqHuktnK5g1rrP5WDjWeTw7TwhJIWT5dBVfula/w93BKgG/fL73Pnrua8WMzjKpbRPwzlHtGpq7L03gmoWpg4wKoPL9JmAn6gXsOCGk3N8ZP/5QAmUlSlc5/vgpU1dZp3PeiQbDu/uO4xd/fU53nT9/95OsiRnG2u//C6IHj52TfUleN6wL5sC+ailMY4oyC1sV1Wj58f+kfYPYtc+8HOT97D8z21dVLVq+f3/S41mf/xis82ZkVr4PPITo3kMZl5X3kx/SrKFSfH50/Onv3RNvZlAWADRvys+W//P/0ry5Dm96F4Gn1xkOma3FVFwA9x039BrlrePBxxDRGY4+FfuKxfDcfVvX383/8QPd2r/hWNY0fIyYmpjiNINPS4r3mtUEzCtVEE8AW45k1vm/rETBhAIFeyvMujfNHnvnRJqGb0RRRVmJigkFwKObun/tWDFDTXp+SbaKkuwE3twvoC2QeQ1CVAbufzE5XPzH9Ymz5phRsWgycOvSztD2l1fFtGttmnwCfvqMKWUwMUnA92/vDhMAcM3C5FB1xsNvSshyImWNjACgNF9FaX4CVwL42bMm7DypfYzhWHcI/ekzku65IzpXjJqUsSkZJX32mSRAkiC6XRC9HpiK82EaPwaWSROSfzXPgJqQMw4wAIB45j/4nJn8sueNq5SXA+vcaZnvX+7jKFY6o1+JHjeyv34vonsPI/zGZsROVEDVafYp5eXAcekyOFYvR3jrDvgefbrf59m+8iLYLroA4Y3vIrJ9D+TqOt1+T11lOGc6rIvmwlI2MflaiGV+rs5+3WpfRg0b4mVNDDHnnNWUXrOwRp8wKPu+fK6C57Zpf1m8d1xAk09I2Q8jlS2HxV43/tcsHPj2bhsPSKg960eLyYWq7iSZZSUKvvdBFZ/4g8mwrFUA//NvSbNmZc08pVeAwftB5MYlSq8A19P/bZQwf2L/O/0HIp0B5gdPSoZ9c0hfIqEgFo/16bmiIMKqMyrNaKTXpIxNyYa/rC9/clgcp3lyKQofvO+c7c957WVQHutuUuC4/OI+BbDBLF/rvBmdNUNxGbHySijtPijBENRIFILNCtHpgHnS+F6z0NtXXgR7hqMiagZWqxWOK1fCceVKqNEo4hXVvY9BkiA6HRDzczqbXDkdutvzfuYuePt5TPn/84MRWdbEEHPOue3QbVYFAOHo4Oz7moUKXtopat7Yywlgwx4RH74kvTCyYU/3h/f0MSpK8we+1d97x5MDXVF2Gl82VhVTilQcqdEPhDtPirrrLJ+e+jVdMlM7xLQFgBd3iPjg8v6FumO1Ah58TUwZYFy2ztHYGjv4AZFWGN68Db/6wyN9eu6EscX446/+m4XYw9mjlPVaxlHJaISyzCxD7g+/NjwO1myCZdr5HepUsFrP+zGMlrKmoWtETWNvTqMlWHyQOvBnOVWsmKEfNF7bJyKaRs1rRVPvvidXXaAMyjFXtyQHjON1QlqTgi6eYrzOa/v0L68JBYpmWZbkaD/vjf39n7h03S6xqwmZ1Qysmq3iS9cm8PDnZTz0uTh+cZcMl40fEHTunWlSdjY2JSMiIhqhIcaUVogZvNGnjJp8BSKdTbiM9KyFyXYBF5UNztgL/hT9Axs7gP970wSjPV42V8GPP5TQrFmKytDtk1Lghe6wyXp9nNoCwP7K/k9cWuAF7r0ygb9+No7PXiVj+XSlq5ma06riykEKj0RGzkx82RObkhEREY3QEJPOMMlmafAGYyvNVzFngv721+0SdQNCVAbeOdp9WlbPUSCJg3PMNrP2Mf7noybsOKl9rE6rirISRbOPz4k6/bCY49J/TYVe/eXlDf0Lowsnq/ifj8tYPUfRDFNXzVdgNfNDgs69C+ckhxg2JSMiIuo2ovrExNMKMYN7DGsXKLq1BLWtnX1FtDrPbznc3czJJHXeSA+Wsbna/VpONgj4+bMSsl0SVs5UsHiKmtQJXz9k6Odjp0FTLZfBHIVHa/sXYgq9qmE4zHKq+M+bZLQHOXcMnVtnj1LGpmREREQjOcSk0d8kyzm4x7BwsoKSnORRv3pat0s7xLx5oPvmf8lUNWlizoE0a7xx5/y2APDcNhHPbQMKvBIunqngqvmK4XHVGczdZjOo4fAYhJi6tnMTLGaNUwGo/KTQcdnKi3AZR4QZcD1HKWNTMiIiot5GVHOySBpD5Xodg3tDKqCzNkbP/koh5TwrtW1Cr1BhtJ1+33zOUdLqR3RGYwfw9Dsi7v2zCQ+9IekOUhCK6ocMs0F8Nmr2F47xzUsjW88mZWxKRkRENEJDTDAqpNUnZmzu4B/LqtkJw5Gt/r0zOT2s3919OkrzM2u+1Rf5HhU3XJj5PuREZ23SVx4yo0lj3h2jQNnfvkmhKN+8NLKdaVLGpmREREQjOMR0hNJbT2tY34F0ZvJLPZsPC736WkRl4K1D3afj6gXnZmSs25bJmvO1GGnsAP7rnyYEU9S6BCP9LEOD5mbROBt50ci3ZN5UNiUjIiIaySGmttW4j0RJjv6wvgPpmoX6TbXkBPBKj6GUd5zo7tDvsgHLZ5ybECMKAr54rYwPXZxZ07Iz2gLAw28mP9HZzzlWonHjkMPu9jTSXThnKpuSERERjeQQU9VsfEs7v/TczfuRzuSX63d3T375So+mZJfPVc5Z2AI6w8CNSxL4n4/LWLtAyXiSx7NrlQDjjvtG8/UYLXdY+ealke+iuVPZlIyIiGgkh5h0hty9cOq5nbww3ckvz+7Qv2b++ZlkMd+j4p7VCfzp03F86doElk9X05onRU4AB6uEs0KGfoAzGklOTug/327hm5eIiIhotBoRQyxHZeCowVDBBV5g5rhz24vizOSX+yu1j23dLrHXcMwLJ6uaE0ieK1YTsHy6gmXTFcTkzrlrnt+uP2x0VUvv1zgmR/81GHX890f0z2dxNnvEEBEREY1WI6Impmd/Ei03X5Q4L30ojIZJrm0FNuzt0aH/gnNXC3OsVkyqQelJeD/QrJ6j4Dcfi+MTl2v3mwmfNVrY1GL9fRt1/A8bjD42rYQhhoiIiIghZhh7cbv+yyjJAVbOOj83vZ2TX+qvc2Zo6JIcYN457Lfz02ckfO9xU8o5a1IFmivnJ3DTRamPz3XW5JQTCvQHCmgN6O+zoUN/+WAPP01EREREQ9ewb072xn4RJxv0b3g/e1UCknh+QsyZyS8ffM04L65dcH5uzHeXiyjNT6S17vLpCp7Ykvxacl29y9dqAuaVqth5MvW5aezobAaoNYCB3kAN2S5gxlgFHJ9s6IvHZUSNOkDRqGeWRFit7OhGRESjJMQcrBLwtzf0xwW++9LEef/VftXsBP61Wb/Jm9Xcud75sKtcwI1L+reN6WOTQ+LVFyjYeVL7/FQ2iinPTZNPQGOH9r5Wz1EgCgwww8Gr7+zDg0+/zoIgXZcvnYPPfPAqFgQREaVtWDYnSygCXtgu4UdPmXTnE7ltuYJrFp7/ZkdWE3ClQV+Xy+ac22GVezpSI6TVpAwA9lcmXzKl+SpKUnS0n1uqYPoY7RqwjQdT73PzYe3LMtsFXDWfTcmIiIiIRrMhVxOz86SIpjwVdgtgMauwvH+EgbCAJh9wrFbAW4eMazXuvTKB5dOHzs3uVfMVPL9N7Or/crYrLzi/x/qffzfhjhUKrrwgoRmmKpoE/GtzcsC4c2XqYxcAfOGaBL78UOqw+eYBEatmqb1qYyqaBDz9rnaI+dQVCWQ52amfiIiIiCFmEFQ0CSivF1DXJqCqRUBVs34ToTMe2di/yqHl01V8+JJERsMUB6MCDlcLujUAAJBQgBd3SJhWomJykZpRP5szk19uPJBc+zBnQuqaDD0qgMomAUdrRLQG9WtR9lQIyHWLmDVO1QwAcgJ4dJOIZ98TsXSa0rWuWeoMjwerBLx5IDmE3bxU0R2MIN+j4j9vkvHTZ5KDjJwAvvu4hEtnCxiTo6KmtTOgatWufeJyBYsmKzrnR0BVC7quOz3lDQLe2C9ibC4wJleF08pgRHS++P0BHD9ZAVEUMXnieBYIEREZEtRA1aDcvf3gSZPu/CgDyWUDLpmp4NI5CkrzM3s5FU0CvvZ/mWe5Ai/w+0/GB2Rf37gxoXtznsrPnjVpdprX0zmJZee+7vmd2XBoai1WM/CRlQqunJ9I+7X/fp2UdrO1s8v6U1ckdMNSbZuA/3jYpFnTZaQ0X8V9H2UH9IGkqCoOnqjC2zsPQU4oaGpqYaFQSmPz3Jg2oRCCZMLKZYtZIEREZGjYdOw3SYAkAl4HkONSUZQNlOYrmFoMTC1R+jxOVSzet2fG+3CznGryywJv5zDMGR93H++3e9Zy/PjDMt47JmL/aQGnGoS0Ak22C1g5U8Ga+UpGtV2l+Sp+8VEZW4+IeH2/iMPVgm7gMEnAlCIVl85WsHKWca1XTEafAwwAhGIcKGCgiYKAOVPHY87U8YhGY3hn204WChEREQ2IQauJodT2Voi9RlRbuyD92ozB1h4UUNMKNLQLCMeAmCxAEjtrXXLdKibkqxkFF90wJQMn6gS0BwW0Bzv35bACLltnM7Ypxep5G+iABh5DDKX1hcSaGCIiYoghIoYYYoghIiKGGCKiPoYYonRw0ksiIkoHG+wQEW9MiYiIaFgRWQRERERERMQQQ0RERERExBBDRERERETEEENERERERAwxREREREREg4ejkxHRiFBb34S/PPoU3tuxv9fjTz70Kzgd9gHZRzgSwdtbd2LHnsMor6xGe4cPoUgMDpsFhfm5mF42ERdeMBuLF86BKAgZb/8b37sf+w8fH7Ay+cX3vozZM6by4iAiIoYYIqKhJBqN4YkXNuCp5zcgHpcHZR+KquLpF17F48++glA4krQ8FI7g1OkanDpdg5df24ySogJ87hO3Y/6cGTxBREREDDFERN22vLcTD/79OTQ0tgzaPoKhMH78q79gz4EjKZebzaak8FRb34hv/egB3HHLWnzk1mt5ooiIiBhiiGi0q6qpxx//9oRmsBgo8biMH/ziTymbeE2dNB7f+OLHkZ+bjVc3vYP/ffjJpDDz2FPrAIBBhoiIiCGGiEarcCSCfz37Cp779xuD1nSsp7/+/ZmUAcZsNuFbX/kkCvNzAQBrL78YDU0tePK5DUnrPvb0K5g5tRQL58/mCSQiIhogHJ2MiIaFTVu341Nf+j6efG7DOQkw5RVVeGH9WymXrVq2oCvAnHHzdVfAbE7xu5Cq4Hd/fRzRaIwnkYiIaICwJoaIhrz7HngIb27e3vtBQcSEMYWorK4blH0++uRLgKqkXLbswgVJj3lcTsydVYadew4lLWtobMHLr2/GB9auTnv/SxbNwcyyyf16Dfl5Obx4iIiIIYaI6HyoP9NxXxAxY2opLl66ACsuWgCfz4/PfeOnA76/2vomvLfzoObyGdNTh4u5M1OHGAB4/uU3cf3Vl6Y99PKCuTNw3ZWrePKJiIgYYohoOJo6aXxXcMnLyep63OfzD8r+Xn/7Pc1aGI/bBY/LqXGc4zS32dDYgkNHTnDeFiIiIoYYIhoNPn3Pbed0f+9u26u5bExxgeay4qIC3e1ufnc3QwwREdEAYMd+IqIefIEgTlVp97PJzc7SXJaflwMI2h+r+w8dZwETERExxBARDazDR05qNiUDALfbof2BKgjIzXJrLj9VVYdwJMJCJiIiYoghIho45adrdZe7XA795U6d5aqCytPVLGQiIiKGGCKigVNfX68fUhz6IcbhsOsur6lrZiETERExxBARDWCIaWzTXZ5yQsteIcamu7yxpZ2FTERExBBDRDRwWto6dJdbLGbd5XarfohpbmllIRMREfUTh1gmIuohEAzpLrea9UOM2SzpLvf7Q2kdR01tI9a99jZOV9XhVGUNWto6EAiGEI5EYDaZYLdZYbfbMaYkH5NKx6Fs4ngsmDfTsKaIiIiIIYaIaIQxGj3MZBBSTJKgv/1oeqOTvfDKRs1l8biMUDgCtHWgurYe7+3YD6BzIs5Vyxfh9huvQnaWhyeTiIhGLDYnIyLqGRBkZVC3n+jj9h12m2Eti88fwAuvbMS9X/0RNm3dzpNJREQjFmtiiIjep6iq7hwxaX2omi36ISaRSGs7hQW5WH3JEixbNBdjS4pgtXZut63dh32HjuKFlzfh8LFyzTDz898+hGgkhjWrl/PEEhERQwwR0UglCkK/tyHHY31+7ve+eS8URQUA2O22lMeTneXBymWLsXLZYjz65Et47Kl1mtv7zZ8fQ0lxAWbPmMqTS0REI+s7m0VARNRtsDvGW6zaAwPYbTY4HXY4Hfa0AtVHbr0WK5Ys0F5BVfCXR57mSSUiIoYYIqIRHWJM+iFGjus3B5MTqu5yoyGYM3X3h27QXX68/DT27D/ME0tERAwxREQjldvt1F1u1KclbhBy7LaBrekpKcrH1Enjddd59/3Ry4iIiBhiiIhGII9LP8RE43H9EJPQX56VnTXgxzyjbJLu8v2HjvPEEhERQwwR0UhVmJ+nuzwS0e+4HwrqzwOTlzPwIWZMSYHu8oamFp5YIiJiiCEiGqmKiw1CTEw/xESiUd3lJYV5A37MHoMmcKFwBPG4zJNLREQMMUREI9H4kiLd5cFASHe5LxDUXT52TPGAH7PNYjVcJ2wQroiIiIYTzhNDRNRD2ZRS3eV+g5DS2tahuczjdqEwPzfp8Wg0Bvn9AQOcDnvGxxyJGQQUQYTL6eDJJSIihhgiopFoTEkhPG4XfP5AyuVt7X7N5/oCQd1mWzOmTUz5+P/8+R94c/N2AMAjf/xJxv1mogb9dDwux4BM5ElERDRUsDkZEVHPD0VBwMJ5MzSXNza3ai5raGjS3fbiC2anfNxm624OdvBI5iOJ1Rjsd0xxAU8sERExxBARjWSXLF2ouayppRWJhJJy2enqes3nmc0mrLhoQeplPSbYPHz0VMbHW15Rrbt8kUZ4IiIiYoghIhohFi+cg9xsb8pl8biMitOpQ8OhY+Wa21yyYK7mHDRWm6Xr35nO6RKORLDv4DHddZYsmMWTSkREDDFERCP6g1EQcPP1V2gu37b7UNJjiqpi2879qZ8giLj9xjWa27NZbV3/PlVVh2AonPaxrn9jq24/nBVLFmBS6TieVCIiYoghIhrprrniEozVGG75rS3boahqr8d27z2IFo2Rya64ZBEmTxyvuS+T1OOjWFVwIM3amKqaevz9iZc0l5vNJnzk9mt5MomIiCGGiGgoiEZjaGvvMFyvqbmtTxM9ms0mfO1zd8FsTh7EsbK6Dv/esKnr73AkggcffTbldgoLcvHpj31Qd1+2Hs3JAOCv/3gOr296F+FIRPM5O/ccwLd++FuEwhrrCCK+9aVPYNyYIl4sREQ04ghqoEplMRDRUPbi+o04cbICrR0BNDe3oamlTfvmXeOG3uNyIDfbi5wcLwrycjCzbBIuW3mR4VM3bd2OX//h0eQgJIi44pJFKCoqwptvb0N1bXKn/txsL37+va+gpChfdx+vb3oXv/rDIymD1PQpEzFxwhjkvj/scqs/hH17D+LU6RrN7TnsNnz53g9j+ZKFvHiIiGhE4jwxRDTkvfLaFt2bdkOqAp8/AJ8/0LWdxubWtELMymWL4XLYcd/vHuk9d4yq4NVN2zSfN2fGVHztC/ekNeeLySylfDwel7H/8HHsP5x+Z/+F82fic5+4I+WkmkRERAwxRESjxML5s/Hn33wXT7/4Kta/vlVzIkwIImZMLcVN116KpRcuSHuCyelTJ+GOW9aivKIKFadr0dDUBqhK2sdXUlSARfNn4po1l7D5GBERjQpsTkZElAFFVXHq/bDR2u6DnFBgt1lQXJCHsimlyM7y9Hsf8biMppY2NDY1o8MfgM8fRCQSg/z+/DQupw0Omw25OV5Mmjhec+hmIiIihhgiIiIiIqIhgKOTERERERERQwwRERERERFDDBEREREREUMMERERERExxBARERERETHEEBERERERMcQQERERERFDDBERERER0eAysQiIiDLT0NSCnXsP4eDhE6g4XQufPwBfIAgAsNtsKMzPwZRJ43HhBbOx6ILZkKT+/14UDIWxY88BHD56CoePlcMXCMLvDyIuyzCbTMjPzcak0rGYN6sMyy9aAKfDzhNFREQjlqAGqlQWAxGRsfKKKvzrmfXYvG0PoCppPSc324s7blmLqy5bAVEQMt5nW7sPT7z0Bl597S2EwpG0nmM2m/CBa1bjgzdeBbvNxhNHREQMMUREo9Fz697AQ/98DvG4rPFpKsJsEjWXL5w/E9/68icyChV79h/Gz377EHz+gG5g0dpnSVEBvvv1T2PcmCKeQCIiYoghIhpN/vTQE3jhlY0plznsNnz+U3dg2eILAAD/fvUt/PmRZ1LW1Mwom4SffPsLsFothvvctHU7fv4//6dZ43PHLWtx0zWXwemw64Ydj9uFX//oaygpyueJJCKiEYMd+4mIdLy4fqNmgAGA//zSx7By2WKYzabOZlxrV+OOm69Kue7hY+X48yNPGe7z+MkK/PoPj2oGmFs/sAYfufXarn4v8+fMwDe/eE/KdX2BEH78qz9r1yARERExxBARjRxt7T48+OgzmsvnzJiKhfNnJz1+y3WXw2xOPW7Ky69vxfGTFZrbVFQVv/nTPzRDh8NuwwdvTA5J8+fMwIyySclPUBWcOl2D59a9wRNKREQMMUREI93jz76iW4OxcsWilI/bbTYsWTA39ZNUBY888ZLmNt/ZtgunTtdoLl+ycI5mv5pVGscDAE+/+Bqi0RhPKhERMcQQEY1UiqritU3v6q4zZ8ZU7WWzpmgu27n3CGrrm1Iue+2tbbr7nDVjis7xlGku8/kD2LRlO08sERExxBARjVQnyyt1hzQ2m00YU1KouXzqxLHaG1cVbNq6M2Vw2n/wuO5xjdcZaWz8uGLNZmwAsHHLTp5YIiJiiCEiGqkOHi3XXZ6T7dWd96WkpFj3+Tt2H0h6rKKy2nAumPy8HO0PdEHA2OJCndd0gk3KiIiIIYaIaKRq6/DpLve4nIbLHXbtOWFOnDqdFCja2jsMj8vj1t9vQYF2yInHZRw+dpInl4iIGGKIiEaiQCCku9xkMhluIyc7SzdQnK6u7b3PUNhwmyZJf785WV7d5cfLq3hyiYiIIYaIaCSKRKIGYUIy3Ea21627/FRl71HIohHjpl6SSX+/WVke3eUVOiOfERERMcQQEQ1jboPmYpFo1HAbDqdNd3lNQ+8RypwG6wNAPBbXP26nQ3d5fWMLTy4RETHEEBGNRF6vfo1GMBQxDjE2/VDS3NzWe58ej+E2/cGQwT6tussbmxhiiIiIIYaIaESaNL5Ed3lTSysUVdVdx2YQKHyBYK+/J04YCwiiQfBp1l1uVJtz9j6JiIiGIxOLgIgo2YzpkzsDhaqkXB6PyzhdVYdSnbBjNuj8HzqrNsfpsGPCmEJUVtdpPuf4qWpML9Oe8NIkmXX3GY/LiEZjsFotPMlEo8zxaD0ebH0Du0MVAIBp1hJ8Ku8yzLGNG7Gv+X+aXsGT7e+mte6XC9biJu+FvFCGCdbEEBGl4HE5MWf6ZN11tqeY66Unq81iEGKSRyNbdtEFus/Ztkt/nyaT8cd6NB7nCSYaZfaEK/DZ6r9ha+AYwkoMYSWGPeEKfKH6YbwdOMIComGHNTFERBpuuvYy7D98XHP5Cy+/iWuvvAR2m61P24/LiaTHbrj6Ujz1/AbE43LK5+zcewTlFVWYVNr3X04TKfZLQ8ffWjfioZaNA/MlL0gwCxIsggleyYEcyYUSSzZKzfmYai3CbPtY2ATWyo10sqrgJw3PIazEUixL4OeNL2Cxc9KIvBY+k7cGl7pnYXvoJP7VtjVlGdDwxJoYIiINixfOwfzZ0zWXt7R14P4//D1p0sq0w4SSHCY8Lic+eNNa7SepCn7224fQoNFBX0pj6OcYa2JG0c1rAmElho5ECKdjzdgTrsC6jt34Q/MGfLnmEVx98uf4Rt0/8VrgAGSNppM0/B2O1qAu3q65vCMRwvZg+Yh87SZBxBzbOHwsZxWKTFm8GEbSuWUREBGlJgoCvvb5u/GFb/4ULW0dKdfZ/N4uHD52EhcunAOXy4FAIAS/P4TyymrUNuh3wjebUvdfuf3GK3Ho6Ans3HMo5fLq2np86svfx4olFyAvLxvRSAz+QBDVtQ2oqKo1fF0Ws5kndwi7OetCzLWNx+l4M8qjjaiJt+JgpHpQfkGW1QS2Bo5ha+AY/mzOwufzrsLFruk8CSNMu2w8oEeHEmJBEUMMEdFIkZ3lwS9/+FV872d/0Oxw39LWgZdf25zxtu0afWZEQcC3v/Ip/Or3j2Dze7tSrhOPy3hz8/Y+vSabjc2HhjKv6MAixyQswqSux37Z+BKe79ih+7wP5SzH5a45vR4LKhGElRgqYs04Hq3D5uBRzTBUF2/Ht+r+hRu8i/CV/GsgCgJPxgiRbzIevj1XcrGgiCGGiGgkKczPxa9//DX869lX8Ny/39Dsr5JEZ3QzADDpjF5mtVrwzS9/HK+8Pg2PPbVOsyYo030CgMXMEDMS5UouTLUWpVy21FkGAAgoUfyp+VXdQPR8xw5YBBO+kH8VC3WEKLMWY7wlD6djqWuH80xuLHZMYUERQwwR0Uhjt9lwzx0fwM3XXYHN7+7Cnn1HUVFVC58/AF8gBIfNArfbibElhZg5bQoWzZuOJ59/TbMmBQBys7N09ykKAtZefjGuWLkU23btxa59R3Hk2Cm0tHUgHOkcntnjcqKkqACTpkzEotlTUFXbiD//31Oa2/S4XZAkdoccrVyiFV8tuBZxJLCuY7fmek+2v4tlzjIsckxioY0AoiDge0W34Ms1j6Aj0bvZmF204LtFN8Mk8HOBGGKIiEYsj8uJtZdfjLWXX2y4biCo38Y8tyAvrX2azSYsX7IQy5csNFz3WPkrussL83N4EgmfybsCG3z7IKvaI9U92PoGQ8wIMtVahL+O/3/4W+tGHAhXIa7KmG0bh4/kXIKJlnwWEDHEEBFRp2BIP8SU5GcN+D59Z02gmRxi8nhiCF7RgQudk7E1cExznYPhatTIrRhjYvAdKQpNXvxnwQ0sCBoRWHdIRDRIGppadZdPn1I64PtsadQfEW3q5PE8MQSgc7Z2I/tCp1lQRMQQQ0Q0WgRDYfj8Ac3lZrMJpePHDvh+a+oadJfPKJvIk0MAgII0RqyqiDexoGjEMIsSC4EhhoiI9NQahIlZ06bAbB7YFr2KqqJaZ78Ouw1TJ03gySEAgE00HqUuriRYUDRyQozAEDOSsE8MEZGGtnYfXnljKwBgxYVzMW5sSdrPPXhUf/brFUsv0Fz25PMbICcUlE0ai4XzZ6e9z4rKat3hn5csnAOrlcMrUwY3fQPwy3WN3IrySCM6lBDa5RAkQUSW5EC+yYPZ9rGwCYN/TSqqisp4M07GGtAq+xFTEsg1uTDWkovZtnFIZ0aciBrDgXA16uV2tMshOCQLik1ZmGOfAJdo7dfxRdQY6uIdqI+3IajGEFFiiKkyQonOOX0ckgUeyYGxphyUWvPOSZkNlAa5A8cidWhK+BBKxOCQLMiXPJjrGA+v6BiQfQSUKPaHK9GeCKE9EUJCVbrKLE9yYYq1GC7RCvsglVtLIoBjkdpe+88yOeAVHZhpH3vO5+BRVBUHo9U4HKlGQIlivCUPl7tmj7jPJ4YYIiLNENOBRx9/AQAgJ2R85Nb0Q8zeg0e1bwzNJqy4aIHm8seffQWhcAQzyiZlFGL2HTquu/ySpQt5UqmLL2E8Q7tbsPf5xvXR1rexJXgUzbJf+yZEkDDbNg4fzblEdyS0b9c9gU2BQ4b7nWgpwCMTPtP19/5IFdb79mJj4FDS0MJn5Jnc+EjOxbjJe2HKcPGa/wDW+/bhQKQq5WhuJkHCGs9cfD7vqrTDzJFILZ71bUdlrAnVsVbNY9Mqswudk/EBz6Ku+X+0fLzqf3EsUpfWdv8y7lOYbuv9GfdMxzbc37guree/NPnrXaGkRm7Fet8+vO4/oDk3jSAIuNw1G/8v73IUmrwZX2OyquAF3w5s8O/DoUgNVFXVXb/YnIWQxkSvfQ2eT7Vtwwb/PlTEm3T3P9FSgNuyL8JV7vmaQ1lnUtbF5iw8UfolzTJ5tPXtXu+7Za4yhhgiotHq8JHytNcNRyLYf1A7UFy+8iJ4XE7D7Zw4dRqJhJL2vC7vbNuruWzC2GIsXjiHJ5J6BQ0jEyyZjWanqCr+t/U1PNH2ru7wzd03XQnsCVdgT00FVrpm4ntFt/RrvpKqeAtkVcHG4CE81rYlrRv4ZtmP+xvXoTzaiK8WXAug85f9R9vewr87dhsGDFntnHPnQLgKfxj3sbRqF07E6nXn6THa39bAMWwNHMMyVxm+X3SLZs3MuWw+dSraCJtgwUNtG/FO8LhhqFBVFa/692N3uAK/HnNXRsM87wiV4xeNL6Au3p72czJZ18hrgQP4TeO6tMPnqVgjft7wAp5oexf3jflwn0JbT6nC2KlYE37U8EzaoZUhhoholDh2sgKKqkIUjBuevLl5O0Lh1EMdm80m3PaBK9PaZzwuo+J0NSZPNB5RrLa+CfsPawenD958VVrHTqPHoXCN7nJBEDDTnv7gExE1hu/WP6U5bPMyVxnmWMdjf/R0ynU2BQ7hG3X/wC9LPpLUvOvLBWtxkXMK3g2e0K2RkdUEPnr6D5q//ut5vmMH5jtK0Sr78Ujr2xnVjgDA6Vgz7mt4CT8qvq1P56PYnIVL3bMw1VrcdZN7IFyFf7Rt1jyWrYFj+FLNI/jDmI+nfH//bszHcDhag+2hk3ioZWPGx7TWMx/5kgfvhU5gg38fwjo1Gfc1vtSncm+W/fhRwzN4cNz/S6tZ32uBA/hx/bOaIdkkSFjunIZJ1gJE1TiCiShq4q04Hq3P+Jym8vfWzfjfltdSLiuzFWO5cxpa5QD+7duddIynYo34dNWDeHD8/0tqYrbWMx+TLAU4EK7GkWgt3goe1gyCQSXa6++3A0fww4ZndM8PQwwR0SgVCkdQU1Nn2C8mHpfxzIuvay6/89ZrUZifm/6N5rHytELMP558SXPZwvkzsXLZYp5E6tIgd2BvpFJ3nXm2CRm15b+/6WXNAHNP7ip8LGdV198/bXw+ZU3EtuBJPNuxLalpV67kwrWeBbjcPRubThwyDBOCIGCqtQhTrEXIkhxoivuwOXjU8Cbv+3VPdf17vCUP06zFyDd7EExEDZvGAcBbwcMZz61TZivGvblXpGxON8c2Dqvds/Dx0/+reQN+MFyN53zbUzaHMwki5tjGYaq1sE8hxiZYcLFrOi52TcfhaI3ur/xnAsxESwGmWAuRJTkRU2VsC50wrAU5FqnDu8Fjhs3jdoTK8YP6pzVv7ovNWfh5yYc1a3U+XPm7PgWtngFKK8AsckzCfSV3dtUkzneU9rqeeoa23zetx3eKbk4q6/n2Usy3lwIA1pz8CcJqTDOsR9QYbIIFL/l24ReNLxrWfDHEEBGNYoePnTIMMX9/6iXU1jemXDZnxlTcfP0VGe3zyLFTuO7KVbrr7NxzAG9u3p5yWW62F1/8f3fy5FEvDzStN7zp+VD2srS3907wmGbzKK/kwF3Zl/R67K6cizXX/1vLRlzvWdTnZmW3Zl2E27OXJjXZqZFb8bmqhwyDyBXuOSlnsf+cuka3pgnobCK1JXAUt2UtTft4785eqdsfqNDkxU1ZF+qGkH/7dqcMMefSStdM3Jt/eVKAk1UFP2l4Fq/69+s+f2PwsG6ICShR/LjhWc3r1iRIugEGAKR+DMrbkgjgNzp9Vj6Tt6bXNXu5azZ+b1qf8np71b8fd2Qvx1RrUZ+PJ6jEsC6wJ+1+NCMRh1gmIkrTo0+8hNc3vZtyBLBEQsGjT76EJ5/bkPK5E8ePwfe+eW/GTbo2v7cbjz75EnyBYMrl7+3Yhx/88s8plznsNvzwW59HXk4WTx4B6Gzy9cvGlww7ya90zTT8VbynB1vf1Fy23DUtKZCMMeXAK6XuO9KRCOGd4LE+v8Y17rkp+xyMMeXgs/nGTTmXuaalvBG2CRZ8veB6mAz6mRyJ1KZ9rHbRklY5L3ZM1l1+LFKHiHp+mxLNso1NWQNlEkR8vfA65Jncus8/Ea3XXf5E+zu6AfRG7+KM+tVk6on2dzRrw4rNWSkDyQXv16qk8rJvT7+O5/mOHfhN08spw1yeya35/hpJWBNDRJSmlrYO/OoPj+CPDz2BBXNnYty4IridDtQ3NOO9XfvR0NiS8nlLFs3BVz97N+w2W8b7jMdlPPbUOjz1/AbMmjYFU6eMR7bXg7YOHw4cOoHDx1IPOFBSVIDvfu1TGQ0LTSOLCiCqxtCRCKM82oA9kcq0OqrPso/Ft4s+kPZ+jkfrdZsZTbMWp3x8rCUHHeHUx7I5dBQXu6YPeJmscs7EL0SLbrOyprhPc1mu5MKFzsm6tTEdinG/CwkiTIKEFc5padU4pTMxaUciDJtpaA69bBMsuNQ1C0+2v6u5TqusPTmwrCp4sWOn7j6u8w7e6IuyquDfOgMxlFlTf87mm7XP2+bgEXwh/6o+H1PPmrk8kxtrPHOx2D4Z8+2lMAki9oQr8PnqhxliiIioWygcweb3dgHv6a/ncbvw4VvX4po1K/vdqT4el7HnwBHsOXBEdz2z2YSrL1uBj9x+HZwOO0/WKPJA03o80LS+X9u4wj0HXy+8LqN5SF4L6DcTKjZlpXxc75dio1/l+3zTI4goMmXhVKxRc52wQY1GqSUfW6EdYs7udJ3K1Z75uNozP/0QIJqNP5eGeKduo6ZTeuW2PXRCtxam2Jw1qLUwe8IVuuF/jCU75eNZovYolHXxdgSUaL/mGJplH4uPZl+CJY6pSd8x8+2lmGUfi4PhaoYYIqLRprgoH5/66C3Ye/AoTpw8jZY24yFpIYiYOnEsLr34QlyxammfgsTnP3UHdu05iINHK1Db0AyoiuFzCgtyccmyhVh7+cUZDRxAdOaG5+O5q7o6FWfCaJSzbI3BAcw6tyDl0ca0RwPMVH+b2fR17pzRziXa+vzcPQaDUMy2jRvUY98XOa27XCusWEX92+xTsUbM6eOxfyZvDe4w6Lf20exL8PXwPxliiIhGG7vNhg+sXY0PrF0NAPAFgqitrUNLWwda2/2IRGKQEwpMkgiv24mC/BxMnVza7xqQlcsWd40mFo5EUFvXiOaWdrS0dyAYDHft0+m0IzfLi8mTxrPfC/WJIAj4/diP9flGCgCORvX7gFg1ahEsOn1LZDUBvxqGV3DwJI2UG85+zP9jFJTHWgb3hxvja9ykcY3r32a3y8E+H9NYs/EIeEudZfhJ8QeRZXKOzGuKbysiovR4XE54yqac8yA1eeL4tIZZptHtQznLcbmr94Smj7Vt0R0VSlVVPN72DuYU9y3EdCghw2GLzwwHm6mIEoeXww8RoNv8D9BusjhQ6mLtxtdrims8psq6zwkokUEvu8HoW8YQQ0RERAMmV3Il9Tv4YsHV2BY6qduef1PgEF727cmoj0YmN2EfO/2nPr2e0CiYuO9IpBZbQ8dQHm1EndyGVjmAoBJFXE1oTuY42qgAfEpYd52sQR6Jy2+w//sb1/VpqOOwGuMJZoghIiKis3lFB75UsDblpHu9bsKa1mGBY2LKoYl1b+7kwfsleSTfxO8JV+CB5vW6o7pRp6ASNZzTyCyYBv0YeI0zxBAREdE5dLlrNl527sa24EnNdcJKDD+qfxa/HfPRjDrTx8GbsEw907ENv2l6WffGfLwlD9OsxXC8P3JVHAnNyUFHfogxDsrWNEZv64+IGueFyxBDRDSwotEYlDRG70r5xWe1DsroR0RDzdcLrsdHKn+v239lT7gCj7e/YzjiUU82wfjm8amJX864hmekeid4TDfAeCUHvld0CxY5JvV6vEMJjdoQk87w0lFlcEOGTTDrNv36bvEtuNw1mxc4QwwRUfo+/dUfak4yaeS/vvJxLF+ykIVII16hyYt7clbhD80bdNf7c8vrWOSYZDinxxkeicMNp0sF8LvmDbo1MF8qWJsUYEY7p2A8NHPcoAN9f2VJDt0fAOKKzBN1HnDcDyIiolHg9qylKLMV664jqwn8sP4ZyGnWbjrTmPtjNHTQT8eBSBVOx5o1l3slB1Y5Z7KgzmISRJh0huMGgJZEYFCPwWjyV3bQZ4ghIiKiwfrCFwR8s+AGCAZNKE/FGvGX1tfT2qZLtBpOHnkuhpEdDg5H9GdOn2gp6NdcKiNZiTlbd3mj7BvU/U+xFuoub9cZ/Y8YYoiIiKifplqL0urz8ljbVuwJV6S1zVn2sbrLG+QOFjyA+rh+OeSb3CwkDdOs+jWI1bGWQX7fFPMaZ4ghIiKi8+menJUoNmfprqOqKn7S8BwCaQwtO81aorv8ULiahQ7jiQ/NIrsp9zVE7E4zcPfVDJv+NX4iWs+TdB7wHUNEw9pDD/yQhUCUAZtgwdcLrseXax7RXa8u3o5fN76E7xTdrLvelZ65eLh1k2aH9c3BI/hM3ppR31TKKVl1lwcTUV6cGi5xT8cfW17VvMaaZT+OR+vTHpAiU3NtE1BszkJdvD3l8uPRepyKNWGiJZ8n6xxiTQwREdEos8gxCVe45xiu96p/P14LHNBdZ4wpBwvtE3XD0L/ato76Ms+VXLrLT8UaeWHqXGPzbBN013mq473Bu1kWBFzvWaS5XFVV/E/TyzxRDDFEREQ02L5YcLVhp3wA+E3jOsPRnz6We6nugAF/bn0dT7S/M6rLe67BTfjpWDP2R6p4YWr4aM4lustf9u3BkUjtoO3/A1mLkafTb2lHqBw/qH8aEY5UxhBDREREg8crOvDZvDWG63UkQvhJw7NQddaZYxuHu3NWai5XVRUPNK3Hp6sfxDMd27A/UoUGuQMtiQBq5Fbsj1ThtcAB/K11I75R90/8rXXjiCvvabYSjLfk6a7zw/qnu27EZVVBjdyKZzq24Ru1/xz11+sixySs9V6ge419tfbv2BEq7/W4rCrYE67AD+qfRlW87wMAuEQr/qvwRt2w/qp/P+6q/AP+1roRe8IVqJFb0ZIIoEHuwJFILd4OHMHfWzfjB/VP4xt1PKf9xT4xREREQ8iZm67yWANOxhpRGWvC0Uid4fMebHkTbwQOYoIlH6XmfJRa8jDHPgEuUbsvxtWe+djg35d043e2bcGTuL3iNyizlmCStQAzrCW4wFHaa/6Mu7NXolUO4PmOHZrbORiuxsE0OvrnS57eN6jo7DxtdJwAsMG/D5IgYoq1CD1vNzuUELaHytEgt+s+f3eoAm9bjuACx8ReZXfmvOwM6x9DQ7wDL/v2YIFjIgpN3q7HBQCfzr0c36r7l+Zz6+Lt+GTVn2EXLYio8V59QARB0J0o88WOnbjENR2zbeO7+h/JqoLD0RpsD500LLeXfLsQUCKYbR/b67w2yB3YFTqFVlm/Nm5H+CSmWosw317aq/+Toqo4Fq3DxuBh3efH1QSe6diGC+wTNfuWfDn/ajTGOzSvg45ECF+ueQTF5iwUmrIQUqOoirXoTlR59rXTGcrHJ10/Z4LUfxbcgF80vghZTWiew4daNuIhg32lCrQRNYbj0QYcj9YhrrH9M94MHEQUMiaY8zDOkmM4l81IJKiBKpVfGURERENDg9yBW07dPyDb+m7xLbjcNVt3nRq5FfdU/intG70zHhh7N+bbS1PeDP+p+TV09HHujImWAnwh/6peM9f/oP5pvOrfn9F21novwH8W3NBVprdW/EY3BCTdIAkC/m/8Z7puqD9c+TvdySpT+Xz+lbgta2mvx/7euhl/bn097WOxixZ8Ou9ytCdCeKhlo+H64y15+MeEzwEA1pz8ScbnVRAEPFn6JRSavHjJtws/b3gho+cXm7PwROmXBuzcpQr5v2lahxd8OzM6n3bRgknWgrRCNAB8q/ADuNozP+Wy/ZEq/Kzh+YyvhzO8kgMfy12Fm7wXdj32sm8Pftr4fEavqec5u8W7BF/Iv2pUfVayJoaIhpU3tx3EqeoGFgQZ+thNq1kIaRhjysE9Oavwh+YNA7K9az0LcLl7Nl7o2Ik3AgdxNFKn+at1zxvfFc7puMQ1HfPspUm/gMcMnp9KXOke0lhGIuObQ1VVex133GCI5FRiSvJx35mzArPtY/HXlo26c/EUm7NwvWcRrstaAK/owPFofVohpudxxvtQbqqqQkbi/XLP/DWHzgpNQTXar3OXdOMqiPhqwbW4OWsJHm19C9tCJ3UDs1204FrPAnw4ZwV8iTDuqvx9v6/xObZx+PuEz2Fz4Aie823H/nCVYVj0Sg5c6JiMZa5pWOEsS6o5CauxPgWYM+esL+U83LEmhoiGXYh54B/rWBCka8UF0/CVu69nQQwBETWGI5FaNCcC8CVCCCVisIgSHKIVY805mGgtgFd0jMqyaUkEcChcjaaEr6tcckxuzLCVYIwphxdPOjfw6GxqWBlv7nV9uUU7JloKUGYthqjTj2UgyKqCE9F6VMutXccgCSLckg25kguTrIW9mhbSwGBNDBEREQ0am2BJ2eyMOodd/v/t3WtwXOVhxvHn7K5Wu6uVVtZdluSLsB0BNhGO49gO7sAUwiUmlJtbKMkwbhqSIdAybd0ybQIhM+kQ2jDFTRsgpQwpkEIDpGMolBIIBpuLYzyAwZaNZWxdvbrsSnvX7p5+MPYg756zq5stm//vE37fPees3rMS59n3ttbfRkNMgSFpcWnDjO0RU9TDtOFQm2eu2jSXG0KIAQBgajKZ7JGHHIcx49/EAgBOLJZYBgCcdnqCQ9qy9U1t2fomjQEApyHmxAA4pQwMhY7997a3d9IgsFTuO7I87u+dt4qeGAA4zTCcDMAppaaqUtKRvQeOPqQCAIDPFoaTAQAAADil0BMD4JTVUF9LIwAA8BnEnBgAAAAApxSGkwEAAAAgxAAAAAAAIQYAAAAACDEAAAAACDEAAAAAQIgBAAAAgCPYJwYAplHWNPVmbK9eiX6ofck+HUoNaszMqMRwqtZVoYXuOq0qW6QLy5fKY7in/do74p3aGu3QB8ku9Y+FFcrEJEklhlOVTp+qXH7Ndc3R4tJGnemZqzbP3Gl/HwAAzDT2iQGAabIt2qF7g8+pdyxU8LUBp0/fqFqrawKr5DCMKV3XlPTsyA49MvRqUdf+NJfh1Ma6y3VpRTs3EABwyqAnBgCmyJT0s8EX9djQ65ZBIW1mxpWFMzFtCr6g38U79YOGaybdG9KfDuuOvie1K95l+RrDMGSa+b+vSpsZDaYj3EScdA8NvaINVefTEAAIMQBwIlgFmIDTpzsbrtFy70K9m/hYf9f7hMKfDO86amukQ7f3/FL3zL1BLmNi0xT3Jvu0sedRDaRH8wanr1et1VcrzlWdK6BoNqn34h/rmZHt2hrp4KZhVrkv+LyeDL2hSqdPVwVW0iAACmJiPwBMwZbIbssemD+vu0wrfK1yGIbavQv0t/V/kPd122P79eDQSxO6bn86rNu6H7EMMPfM/WNtqDpf9a6ADEl+R6lWly3R3Y3X647Ga7hxmBUi2aTu6vuVngy9IUm69/Bz+p+RnTQMAEIMAMyUhJnST4LP5q1rLKnUhf6l48pWly3REk9j3tc/PrxVnalgUddNm1n9VfejOb06R32r+ve1wtdqefx5ZUvkMpzcQJxU3ekh3d7zuF4cfW9c+duxj2gcAIQYAJgpT4e25+0JORIU2vKWX1B2dt5y0zT1s8EXi7ruI8OvqjN1OG/dPHeNrq1cZXu8x3DrcxZhCjgRdid6tLH7Me2MHxhXfn3Vl/X9hqtpIACEGACYCVnT1NPhtyzrz/UuyFtu10OyLbpX3ekh2+v2p8P6xdAWy/qrK1cWNbfmrNJmbiJOim3RDt3a/bAOpgbGld9Wd5m+U30RDQSAEAMAM+XdxMe2yxk3u6vzli8orZFhsaSyaZp6YeRd2+v+5/C2nJXOjnIZTn2l/PNFvf+zvIQYnHibR3ZoY89jimdTx8oCTp9+1PhHTOgHQIgBgJn2amS3bX1LSf4Q4zHcanAFLI97PbrHsi5hprR5ZIdl/VJPi/yO0qLe/zJPiwJOnwJOn3xONrvEzHto6BXd3f/f48qWeBr1D3Nv0Fp/Gw0EYEJYYhkAJmF7bL9lXcDpsx3SVe+qtOzF2ZvsUzgbU8Dhy6l7Ldox7hvs453rW1D0+693BbS5dSM3EifMhqrztT95WL+NfCBJWuNfoo11X1O100/jAJgwemIAYIISZkoHxoK2IcZOravcss40TX1gsXHlK6Mf2J73zNK53BzManc2XKMlnkZdEVihuxuvJ8AAmDR6YgBggvYm+2WapmV9udNje3yls8y2/qPkYa0uW5JTfvxKTsdrLa3n5mB2P3QYDt3VeK2aXFU0BoApoScGACaoKzVoW19WYF6Kv0DIOZTOPX93eshyX5gjD4dO1ToruDmY9QgwAAgxAHAS9KZDtvVewz7EuAt0gvekhnPKPkz02B5T6yqXw2LVMwAATjcMJwOACRpKR+xDiuG0rS+0GthQJvf8wbER22PKnV5JkilpX7JPe5I9OjQ2qGgmKbfhkt/pUZ2rQuf6FvBNOKZdfzqs9xKHdKF/KY0BgBADALNRyGZYlySVOFwFQo59fb5hY91j9ptgjmUzui/4vP539F3bYWeSNM9doxvmnKeLys8pamNMwM4ToW36+eDLanFX64u+1rwr6wHAdOP/XgAwQXEzOaXjnQX+9EazueePZe2v2Zk6rCdDbxQMMJJ0MDWgH/U/o5u6HtRgJsINxaTsjB/QLV0Pa1PwBcWzKXUkevXgwG9oGACEGACYjVLZjG19iZxTOn9G2dxgM8XglE9HolffPHi/+tNhbiqKljBTui/4vG7pejhnxbx34we1LdpBIwGYcQwnA4ATrNBwM9M0lTXNcRP1U9m07TGNJZX6WsUKfd43X3WuCgWcXiXNtLZGOnRv8DnLTTIH0qO6o+9J/XPTBoaWoaD/i7yvx4dfV0eiN6fu2spV+sM5q1XvCtBQAAgxAHC6GSsQSAzDyFlpLG1mbY9Z6mnRDVXnjSvzGG5dWtGuZne1bu56yHJvm13xLj0/ulPrKpZzc5BXZyqoX4Xe1K/D23Pq2r0LtL5yldb622goACcMX7sBwATNdI9Fvjkzbsfkh6gt87To0op229c8PrxVJrcWFgbTo3kDzE3VF+qepusJMAAIMQAw25U57DerHJP9nJl8c17Gnz93n5lCe8+kTPtrFuplOZga0L5kHzcXea3wteqi8mXj/v1gy7d0Q9V58hhuGggAIQYAZn2IcdoHikLDxVKmfb3PkftQWOn0FQhO9uc8s7RJXof9w+Z7iYPcXFi6snKlJOmW2ot1b9M31OaZS6MAOGmYEwMAE1QoUBTqFUkWCDlVLn9RZZ8Wy6Ts/9gbDrW4q/NOyD5qT7J3Rtstkk1qX7JXHZ9cZ33laj5Mp5Blnhb9cuGtbJYKgBADAKeiQqsvFeoViZv2gaPGWZFTVueqsD2mmP1halzl6pB1UIlmpm8Z573JPu1L9qk3HdI7sQPak+w5tkKa1+HWL+bfzAdplhjMRFTt9Bf1WgIMAEIMAJyiGl2VtvWFekUimYT9g6J7Tk7ZfHet7TGj2XjB911WYF5NMUHoeP3psHrHhrUjfkD7k4fVmx627e3xOtz6afMGluGdBbZEduvlyC41u6u1oep8GgQAIQYATmetpfVTCgOFNq5cUJIbWBaX1sswDMtlkgczkZy9ZY5XaH+aQnbGD6gj2au+sbD2JvtyNjos5GiAWVzawIfoJAlnY3pp9H29PPrBsftX4yrXFYEVRffGAAAhBgBOQfWugAJOn2VYKdQrEspEbesX5XnI9xhuLSipVWfqcN5jTNNUMDNi28NRaMGBQIG5Pr1jIW0KvjCpNiPAnFy7Ez16ObpLz4bfyfncDnyyfDK9MQAIMQBwmmv3LtBvIx9YhJSYba9IbypkGyQWWTzor/YvVufQYctjD6UGpzRMq9CCBUf3mvlR/zMTPvdttZcRYE6CLZHd2jy6Q1sjHZaft68GztUF/rNpLACEGAA43a0qW2QZYtJmxrJXxJTUl7YOMSt9Z8hqQNh5ZW16bOh1y2P3p/q1wtdqWT9coAeotbSu4M99aUW7/A6Pftj/1LGJ+oWc7W1WicOlhJliT5ETqDMVtLxPSzyNurj8HF1WsVx+RymNBeCUwz4xADAJa/1tchlOy/reseG85YfTYduHf7tvxJd5WjTPXWNZ/278kO17HkxHbOuXeeYV/bP/tHlDwX1njtoV79IPev9LDwz8hg/OCbTQXauVvkXjytb4l+iOxmv0by03aX3lagIMAEIMAHyWBBw+XeA/y7L+w0RP3vL3EtZBo8ZVrtVlS2yve92cNZZ1O+MHlDazeeuypqlDY4O21z7DXV/0z7+4tGFCQUaS1hT42TC9TEkXl5+jgNOnKwIrtKn5Rt3deL0u9C+lcQAQYgDgs+q6OV+WYTHv5a3YvrzlWyN7bAOKy7D/s3xJebtlb0w4E9O2aP65Dx3JXqVtNuFcX7nadmWzyQaZT79Xu6Fun7Yt2qFt0Q4NZiJ8yD7Rnw7rqfBb+uvex7R2751FHWPoSK/Z/fO+qb+sW6d27wIaEsBpgzkxADBJi0sbdGlFu54Lv5NTtzP+sfrT4XHzYsLZmF6L7rF82L8q8KXCf7QNh/6m/grd3PVQ3uWWHw29prX+tpzyl6O7LM9Z4yrX5YEvTLoNnlr4F/qz7ofz7g+z1NuiR+d/V93poaLPeWhscNwqaO3eBfqSb5Hmu2vUUFKphe66gmHvVDeYiWhbtENborvzTsrvTg8VvfEkG1QCIMQAAMa5peYSvRPrVO9YaFx52sxoU/AF/bBxvQwdGdrzLwMv5p0P4zKc+l79VUU/mC/ztOi7NV/Ju9zxrniXHhp6ZdxyuZ2poJ4OvZ33XIZh6K7G9VOaG+F3lOqfmm7MG2R6UsMTfpD+6LhlpHfGD4zbkybg9OlznkbNL6nVrbWXnDafpfcSh/TAwEtF7b/zZnSfrgqs5BcQwGeWYUYOmTQDAExeZyqoW7r+Pe++MSt8rfqCt1W/i+/X9tj+vAHmroZr8/aeFPIfQ6/pgaGX8vbIrCw7Qyu8ZyiYHtHmkR2W4Wlj3eXHlk6eqkg2mTfIbFl854TO8yeH7tfeZJ/lxp6fDjObWzcWdc7diR7NcZWpzOFRmaNUxiz8HIWzMa376Me2r1nortM8d42a3HP0neqL+OUDQIgBAExed3pI3+99Mu+QKiuNJZX6XsPVWuZpmfR1t0R26yfBZzWQHp3QcdNxbasgc3vP4+N6Ex6a9+0J7xHTmQpqd6Jbe5N92pvs055kT04Qa/cu0KbmG4s637e7fq5d8a5j//Y63Kp0+lTl8ivg9KnMKFWls0x+p6foTR//dfBFRTNJjSmjaCapaDahuJlSLJNSwkwplk0pmk1q/ZxVRQeOKzv/cdy9PNvbrJW+RZrnrlGzq0rN7mpWFAMAMZwMAKZFk6tK9zf/qZ4f3aknht9QZ+qwbYC4MrBSV1aumPK+KWv9bfpiWaueDm3X5pEdOpgasHytYRg6y9OkdRXLdUl5+4zMK/E7SrWp+Ub9/eFfH5sr1DcWmnCIWeiu1UJ3rS49Lii+EzugHbFOvZ84pPk2y00fb+i45aXj2ZTi2VTOMMA1/uJXUHs69HZRe+UEx0aKPmdzSbW+XrVW53oXqqWk+rSf+wMAhBgAONl/UA2H1lUs17qK5epOD+nDRI+CYyOKmyl5DbdqSyp0pmfutE+09hhuXTdnja6bs0b96bA6Er3qTQ8rlc3IaThU6fSp1lWhNk/TCfsW//a6KyRJz4Xf0d5Un9aqbcrnbHJVqamiSusqlk/42GCRPVVlRvHt0+CqtA2rR0XNZNHnLLZnCQAIMQCAadfkqlKT/8SvClXvCqjeH5gVbXA0yOxJ9pz093JXw7WKZBMKZWIKZaOKZpIKZWIKZ2KKmUkNpSMKZWKqLako+pwBp09eh1tljlL5HKXyOEpU4fCqzOGR23DK5yiV23DJ7/TwCwEA04w5MQCAGbUlsntSCxcAAECIAQAAAHBaYMYgAAAAAEIMAAAAABBiAAAAAIAQAwAAAIAQAwAAAACEGAAAAAAgxAAAAAAgxAAAAAAAIQYAAAAACDEAAAAACDEAAAAAQIgBAAAAAEIMAAAAAEIMAAAAABBiAAAAAIAQAwAAAIAQAwAAAACEGAAAAAAgxAAAAAAgxAAAAAAAIQYAAAAACDEAAAAACDEAAAAAQIgBAAAAAEIMAAAAAEIMAAAAABBiAAAAAIAQAwAAAIAQAwAAAACEGAAAAAAgxAAAAAAgxAAAAAAAIQYAAAAACvp/z4r6tf0odBEAAAAASUVORK5CYII=;" vertex="1" parent="7">
                    <mxGeometry x="510" y="93" width="227" height="132.53" as="geometry"/>
                </mxCell>
            </root>
        </mxGraphModel>
    </diagram>
</mxfile>